<svg width="35" height="30" viewBox="0 0 35 30" fill="none" xmlns="http://www.w3.org/2000/svg">
<path d="M14 18.6667L18.6667 14L14 9.33334L12.3667 10.9667L14.2333 12.8333L9.33333 12.8333L9.33333 15.1667L14.2333 15.1667L12.3667 17.0333L14 18.6667ZM14 25.6667C12.3861 25.6667 10.8694 25.3602 9.45 24.7473C8.03055 24.1352 6.79583 23.3042 5.74583 22.2542C4.69583 21.2042 3.86477 19.9695 3.25266 18.55C2.63977 17.1306 2.33333 15.6139 2.33333 14C2.33333 12.3861 2.63977 10.8695 3.25266 9.45001C3.86477 8.03057 4.69583 6.79584 5.74583 5.74584C6.79583 4.69584 8.03055 3.8644 9.45 3.25151C10.8694 2.6394 12.3861 2.33334 14 2.33334C15.6139 2.33334 17.1306 2.6394 18.55 3.25151C19.9694 3.8644 21.2042 4.69584 22.2542 5.74584C23.3042 6.79584 24.1352 8.03057 24.7473 9.45001C25.3602 10.8695 25.6667 12.3861 25.6667 14C25.6667 15.6139 25.3602 17.1306 24.7473 18.55C24.1352 19.9695 23.3042 21.2042 22.2542 22.2542C21.2042 23.3042 19.9694 24.1352 18.55 24.7473C17.1306 25.3602 15.6139 25.6667 14 25.6667Z" fill="#363636"/>
</svg>
