<svg width="36" height="36" viewBox="0 0 36 36" fill="none" xmlns="http://www.w3.org/2000/svg">
<g clip-path="url(#clip0_108_16)">
<path d="M30 6C30.7569 5.99976 31.4858 6.28561 32.0408 6.80025C32.5958 7.31488 32.9357 8.02027 32.9925 8.775L33 9V27C33.0002 27.7569 32.7144 28.4858 32.1998 29.0408C31.6851 29.5958 30.9797 29.9357 30.225 29.9925L30 30H6C5.24314 30.0002 4.51415 29.7144 3.95918 29.1998C3.40421 28.6851 3.06426 27.9797 3.0075 27.225L3 27V25.5H6V27H30V11.121L19.59 21.531C19.1963 21.9247 18.6705 22.1584 18.1144 22.1869C17.5584 22.2155 17.0115 22.0368 16.5795 21.6855L16.4085 21.531L6 11.121V12H3V9C2.99976 8.24314 3.28561 7.51415 3.80025 6.95918C4.31488 6.40421 5.02027 6.06427 5.775 6.0075L6 6H30ZM9 19.5C9.39782 19.5 9.77936 19.658 10.0607 19.9393C10.342 20.2206 10.5 20.6022 10.5 21C10.5 21.3978 10.342 21.7794 10.0607 22.0607C9.77936 22.342 9.39782 22.5 9 22.5H1.5C1.10218 22.5 0.720644 22.342 0.43934 22.0607C0.158035 21.7794 0 21.3978 0 21C0 20.6022 0.158035 20.2206 0.43934 19.9393C0.720644 19.658 1.10218 19.5 1.5 19.5H9ZM27.879 9H8.121L18 18.879L27.879 9ZM7.5 15C7.88232 15.0004 8.25005 15.1468 8.52805 15.4093C8.80606 15.6717 8.97335 16.0304 8.99576 16.4121C9.01816 16.7938 8.89399 17.1696 8.6486 17.4627C8.40322 17.7559 8.05514 17.9443 7.6755 17.9895L7.5 18H3C2.61768 17.9996 2.24995 17.8532 1.97195 17.5907C1.69394 17.3283 1.52665 16.9696 1.50424 16.5879C1.48184 16.2062 1.60601 15.8304 1.8514 15.5373C2.09678 15.2441 2.44486 15.0557 2.8245 15.0105L3 15H7.5Z" fill="#39B5CB"/>
</g>
<defs>
<clipPath id="clip0_108_16">
<rect width="36" height="36" fill="white"/>
</clipPath>
</defs>
</svg>
