<svg width="52" height="52" viewBox="0 0 52 52" fill="none" xmlns="http://www.w3.org/2000/svg">
<path d="M26 4.33334C23.1547 4.33334 20.3372 4.89377 17.7085 5.98262C15.0798 7.07147 12.6913 8.66743 10.6793 10.6794C6.61606 14.7427 4.33333 20.2537 4.33333 26C4.33333 35.5767 10.5517 43.7017 19.1533 46.5833C20.2367 46.7567 20.5833 46.085 20.5833 45.5V41.8383C14.5817 43.1383 13.3033 38.935 13.3033 38.935C12.3067 36.4217 10.8983 35.75 10.8983 35.75C8.92666 34.4067 11.05 34.45 11.05 34.45C13.2167 34.6017 14.365 36.6817 14.365 36.6817C16.25 39.975 19.435 39 20.67 38.48C20.865 37.0717 21.4283 36.1183 22.035 35.5767C17.225 35.035 12.1767 33.1717 12.1767 24.9167C12.1767 22.5117 13 20.5833 14.4083 19.045C14.1917 18.5033 13.4333 16.25 14.625 13.325C14.625 13.325 16.445 12.74 20.5833 15.535C22.295 15.0583 24.1583 14.82 26 14.82C27.8417 14.82 29.705 15.0583 31.4167 15.535C35.555 12.74 37.375 13.325 37.375 13.325C38.5667 16.25 37.8083 18.5033 37.5917 19.045C39 20.5833 39.8233 22.5117 39.8233 24.9167C39.8233 33.1933 34.7533 35.0133 29.9217 35.555C30.7017 36.2267 31.4167 37.5483 31.4167 39.5633V45.5C31.4167 46.085 31.7633 46.7783 32.8683 46.5833C41.47 43.68 47.6667 35.5767 47.6667 26C47.6667 23.1547 47.1062 20.3373 46.0174 17.7085C44.9285 15.0798 43.3326 12.6913 41.3206 10.6794C39.3087 8.66743 36.9202 7.07147 34.2915 5.98262C31.6627 4.89377 28.8453 4.33334 26 4.33334V4.33334Z" fill="#39B5CB"/>
</svg>
