<svg width="52" height="52" viewBox="0 0 52 52" fill="none" xmlns="http://www.w3.org/2000/svg">
<path d="M26 20.6267C24.9372 20.6267 23.8984 20.9418 23.0147 21.5322C22.1311 22.1227 21.4424 22.9619 21.0357 23.9437C20.629 24.9256 20.5226 26.006 20.7299 27.0483C20.9372 28.0906 21.449 29.048 22.2005 29.7995C22.9519 30.551 23.9094 31.0627 24.9517 31.2701C25.994 31.4774 27.0744 31.371 28.0563 30.9643C29.0381 30.5576 29.8773 29.8689 30.4678 28.9853C31.0582 28.1016 31.3733 27.0627 31.3733 26C31.3733 25.2944 31.2343 24.5956 30.9643 23.9437C30.6943 23.2918 30.2985 22.6994 29.7995 22.2005C29.3006 21.7015 28.7082 21.3057 28.0563 21.0357C27.4044 20.7656 26.7056 20.6267 26 20.6267V20.6267ZM47.515 15.3183C47.5036 13.6451 47.1955 11.9872 46.605 10.4217C46.1701 9.27606 45.4972 8.2357 44.6308 7.36923C43.7643 6.50276 42.7239 5.82988 41.5783 5.39499C40.0128 4.8045 38.3549 4.49639 36.6817 4.48499C33.8867 4.33333 33.0633 4.33333 26 4.33333C18.9367 4.33333 18.1133 4.33333 15.3183 4.48499C13.6451 4.49639 11.9872 4.8045 10.4217 5.39499C9.27606 5.82988 8.2357 6.50276 7.36923 7.36923C6.50276 8.2357 5.82988 9.27606 5.39499 10.4217C4.8045 11.9872 4.49639 13.6451 4.48499 15.3183C4.33333 18.1133 4.33333 18.9367 4.33333 26C4.33333 33.0633 4.33333 33.8867 4.48499 36.6817C4.50832 38.3607 4.81601 40.0237 5.39499 41.6C5.82796 42.7404 6.50027 43.7747 7.36666 44.6333C8.22941 45.505 9.272 46.1779 10.4217 46.605C11.9872 47.1955 13.6451 47.5036 15.3183 47.515C18.1133 47.6667 18.9367 47.6667 26 47.6667C33.0633 47.6667 33.8867 47.6667 36.6817 47.515C38.3549 47.5036 40.0128 47.1955 41.5783 46.605C42.728 46.1779 43.7706 45.505 44.6333 44.6333C45.4997 43.7747 46.172 42.7404 46.605 41.6C47.1949 40.0267 47.503 38.3618 47.515 36.6817C47.6667 33.8867 47.6667 33.0633 47.6667 26C47.6667 18.9367 47.6667 18.1133 47.515 15.3183V15.3183ZM42.0117 32.6517C41.9421 33.9887 41.6568 35.3057 41.1667 36.5517C40.746 37.591 40.1207 38.5351 39.3279 39.3279C38.5351 40.1207 37.591 40.746 36.5517 41.1667C35.2939 41.6294 33.9696 41.8855 32.63 41.925H19.37C18.0304 41.8855 16.7061 41.6294 15.4483 41.1667C14.3739 40.7674 13.4036 40.1304 12.61 39.3033C11.8249 38.526 11.2187 37.587 10.8333 36.5517C10.3687 35.2952 10.1196 33.9694 10.0967 32.63V19.37C10.1196 18.0306 10.3687 16.7047 10.8333 15.4483C11.2326 14.3739 11.8696 13.4036 12.6967 12.61C13.4774 11.8292 14.4154 11.2235 15.4483 10.8333C16.7061 10.3705 18.0304 10.1144 19.37 10.075H32.63C33.9696 10.1144 35.2939 10.3705 36.5517 10.8333C37.6261 11.2326 38.5964 11.8696 39.39 12.6967C40.175 13.4739 40.7813 14.4129 41.1667 15.4483C41.6294 16.7061 41.8855 18.0304 41.925 19.37V26C41.925 30.4633 42.0767 30.9183 42.0117 32.63V32.6517ZM38.545 16.5317C38.287 15.8318 37.8803 15.1962 37.3529 14.6688C36.8254 14.1414 36.1899 13.7346 35.49 13.4767C34.529 13.1436 33.5169 12.9822 32.5 13H19.5C18.4779 13.01 17.4656 13.2007 16.51 13.5633C15.8208 13.8096 15.192 14.1997 14.6653 14.7078C14.1385 15.2158 13.726 15.8302 13.455 16.51C13.1403 17.475 12.9866 18.4851 13 19.5V32.5C13.0215 33.5209 13.2118 34.5312 13.5633 35.49C13.8213 36.1899 14.228 36.8254 14.7555 37.3529C15.2829 37.8803 15.9185 38.287 16.6183 38.545C17.5428 38.885 18.5156 39.0751 19.5 39.1083H32.5C33.5221 39.0983 34.5343 38.9076 35.49 38.545C36.1899 38.287 36.8254 37.8803 37.3529 37.3529C37.8803 36.8254 38.287 36.1899 38.545 35.49C38.9076 34.5343 39.0983 33.5221 39.1083 32.5V19.5C39.109 18.4769 38.9179 17.4627 38.545 16.51V16.5317ZM26 34.2767C24.9141 34.2767 23.8389 34.0624 22.8359 33.6462C21.833 33.23 20.922 32.62 20.1552 31.8512C19.3883 31.0823 18.7807 30.1697 18.3671 29.1657C17.9536 28.1617 17.7421 27.0859 17.745 26C17.745 24.3621 18.231 22.761 19.1414 21.3995C20.0518 20.0379 21.3457 18.9771 22.8593 18.3513C24.373 17.7255 26.0382 17.5629 27.6443 17.884C29.2504 18.2051 30.7252 18.9955 31.8818 20.1552C33.0385 21.3149 33.825 22.7917 34.1419 24.3986C34.4588 26.0056 34.2918 27.6704 33.6621 29.1824C33.0323 30.6944 31.9681 31.9855 30.6042 32.8923C29.2402 33.7992 27.6379 34.2809 26 34.2767V34.2767ZM34.6667 19.3483C34.1877 19.2976 33.7445 19.0715 33.4223 18.7134C33.1002 18.3554 32.9219 17.8908 32.9219 17.4092C32.9219 16.9275 33.1002 16.4629 33.4223 16.1049C33.7445 15.7468 34.1877 15.5207 34.6667 15.47C35.1456 15.5207 35.5889 15.7468 35.911 16.1049C36.2332 16.4629 36.4114 16.9275 36.4114 17.4092C36.4114 17.8908 36.2332 18.3554 35.911 18.7134C35.5889 19.0715 35.1456 19.2976 34.6667 19.3483Z" fill="#39B5CB"/>
</svg>
