<svg xmlns="http://www.w3.org/2000/svg" fill="none" viewBox="2.81 2.79 18.38 18.42">
<path d="M10.401 10.55L9.829 12.376H11.732L11.149 10.55C11.033 10.185 10.932 9.784 10.839 9.417C10.8179 9.33262 10.7965 9.24829 10.775 9.164H10.753C10.715 9.311 10.678 9.468 10.639 9.629C10.565 9.939 10.488 10.261 10.401 10.55Z" fill="#363636"/>
<path fill-rule="evenodd" clip-rule="evenodd" d="M6.77 3.082C10.246 2.6967 13.754 2.6967 17.23 3.082C19.129 3.294 20.66 4.789 20.883 6.695C21.2952 10.2197 21.2952 13.7803 20.883 17.305C20.66 19.211 19.129 20.706 17.231 20.919C13.7546 21.3044 10.2463 21.3044 6.77 20.919C4.871 20.706 3.34 19.211 3.117 17.306C2.70472 13.781 2.70472 10.22 3.117 6.695C3.34 4.789 4.871 3.294 6.77 3.082ZM15.932 10.143V15.5H14.568V10.143H15.932ZM14.492 8.647C14.492 8.229 14.799 7.91 15.25 7.91C15.713 7.91 15.998 8.229 16.01 8.647C16.01 9.054 15.712 9.373 15.24 9.373C14.789 9.373 14.492 9.054 14.492 8.647ZM12.633 15.5L11.962 13.399H9.609L8.971 15.5H7.574L9.95 8.086H11.677L14.086 15.5H12.633Z" fill="#363636"/>
</svg>