<svg xmlns="http://www.w3.org/2000/svg" fill="none" viewBox="0.53 0.72 18.95 10.85">
<path d="M19.1 2.875L10.7 11.3C10.6 11.4 10.4917 11.4707 10.375 11.512C10.2583 11.554 10.1333 11.575 10 11.575C9.86667 11.575 9.74167 11.554 9.625 11.512C9.50834 11.4707 9.4 11.4 9.3 11.3L0.875001 2.875C0.641668 2.64166 0.525002 2.35 0.525002 2C0.525002 1.65 0.650002 1.35 0.900002 1.1C1.15 0.849998 1.44167 0.724998 1.775 0.724998C2.10833 0.724998 2.4 0.849998 2.65 1.1L10 8.45L17.35 1.1C17.5833 0.866664 17.8707 0.749997 18.212 0.749997C18.554 0.749997 18.85 0.874997 19.1 1.125C19.35 1.375 19.475 1.66666 19.475 2C19.475 2.33333 19.35 2.625 19.1 2.875Z" fill="#363636"/>
</svg>