<svg width="64" height="64" viewBox="0 0 64 64" xmlns="http://www.w3.org/2000/svg">
<circle cx="32" cy="32" r="31.5" stroke="#10B6BC"/>
<path d="M26.28 46.07C24.478 44.418 23.952 40.948 24.702 38.432C26.002 40.018 27.806 40.52 29.674 40.804C32.554 41.24 35.386 41.078 38.064 39.756C38.37 39.604 38.654 39.402 38.988 39.2C39.24 39.93 39.306 40.668 39.218 41.42C39.004 43.25 38.098 44.664 36.652 45.736C36.074 46.166 35.464 46.548 34.868 46.952C33.036 48.196 32.54 49.652 33.228 51.772L33.296 52C32.4149 51.616 31.6694 50.9764 31.156 50.164C30.6193 49.3279 30.3333 48.3555 30.332 47.362C30.326 46.866 30.326 46.368 30.26 45.882C30.098 44.692 29.54 44.162 28.494 44.13C27.9919 44.1016 27.4966 44.257 27.1009 44.5674C26.7052 44.8777 26.4361 45.3216 26.344 45.816C26.3267 45.8933 26.3047 45.9773 26.278 46.068M16 38.014C16 38.014 21.332 35.408 26.68 35.408L30.712 22.888C30.862 22.28 31.304 21.868 31.8 21.868C32.3 21.868 32.74 22.28 32.89 22.888L36.922 35.408C43.256 35.408 47.602 38.014 47.602 38.014L38.526 13.204C38.266 12.472 37.826 12 37.236 12H26.366C25.774 12 25.354 12.472 25.076 13.204C25.056 13.252 16 38.014 16 38.014Z" fill="#10B6BC"/>
</svg>
