<svg width="64" height="64" viewBox="0 0 64 64" xmlns="http://www.w3.org/2000/svg">
<circle cx="32" cy="32" r="31.5" stroke="#10B6BC"/>
<path fill-rule="evenodd" clip-rule="evenodd" d="M49.0298 16.0292C49.064 16.0488 49.0926 16.0766 49.113 16.1098C50.8124 19.3219 51.3859 22.9988 50.7441 26.5665V26.5681C49.0923 36.7863 40.1962 44.3281 29.7112 44.3989C28.6829 44.4384 27.6531 44.3773 26.637 44.2164C22.2586 43.4825 18.994 39.8305 18.8023 35.4515C18.8214 30.5039 22.8723 26.4931 27.8858 26.458C32.8993 26.4231 37.0073 30.3769 37.0973 35.3238C37.1358 36.8193 36.4791 38.1323 35.1286 38.1703C33.6856 38.1703 33.0103 37.154 33.0103 35.7862V31.9827C33.0121 30.7016 31.9651 29.6596 30.667 29.6505H27.4356C24.8467 29.6336 22.5808 31.3631 21.9462 33.84C21.3116 36.3169 22.4725 38.9014 24.7583 40.1009C27.0442 41.3003 29.8644 40.8049 31.5904 38.9006L31.703 38.7332L31.817 38.9173C32.2055 39.4383 32.7184 39.8564 33.3101 40.1346C33.9018 40.4127 34.554 40.5423 35.2087 40.5118C37.6357 40.3379 39.4795 38.2855 39.3634 35.8867C39.3749 34.8965 39.2626 33.9088 39.029 32.9458C37.7914 27.3095 32.4401 23.5059 26.6309 24.1337C20.8218 24.7613 16.4312 29.6176 16.459 35.3846C16.5333 41.5189 21.511 46.4965 27.7254 46.6507C27.7254 46.6507 28.3472 46.7066 29.1249 46.7081H29.196C29.3033 46.7079 29.4132 46.7066 29.5246 46.7038C34.1619 46.6751 38.6946 45.3409 42.5902 42.8578C42.6457 42.8197 42.7012 42.8958 42.6642 42.9506C40.7677 44.9665 38.4488 46.5503 35.8688 47.5916C33.2888 48.6328 30.5099 49.1066 27.7254 48.9799C25.9051 49.0126 24.0969 48.681 22.4099 48.0052C20.723 47.3293 19.1922 46.3233 17.91 45.0477C16.6278 43.7721 15.6207 42.2534 14.9495 40.5832C14.2783 38.913 13.9569 37.126 14.0046 35.3298C14.0055 33.1885 14.5125 31.077 15.4853 29.163C16.4582 27.249 17.87 25.5853 19.6086 24.3041C21.945 22.6064 24.7685 21.6867 27.6699 21.6782H32.0067C33.7008 21.677 35.3761 21.3277 36.926 20.6524C38.4758 19.9771 39.8661 18.9907 41.0084 17.756C41.0324 17.7297 41.0643 17.7116 41.0995 17.7043C41.126 17.6987 41.1534 17.6993 41.1797 17.7061C41.2059 17.7129 41.2301 17.7257 41.2504 17.7435C41.2706 17.7613 41.2864 17.7835 41.2963 17.8084C41.3062 17.8333 41.31 17.8602 41.3075 17.8868C41.1239 19.8101 40.4752 21.6618 39.4159 23.2863C39.3997 23.314 39.3922 23.3458 39.3942 23.3777C39.3996 23.4436 39.4436 23.5001 39.5069 23.5222C39.5374 23.5333 39.5706 23.5355 39.6024 23.5282C41.6042 23.0819 43.4718 22.1782 45.0551 20.8898C46.6384 19.6013 47.8931 17.9641 48.7183 16.1098C48.7393 16.0765 48.7684 16.0487 48.8031 16.0292C48.8377 16.0101 48.8767 16 48.9164 16C48.9561 16 48.9951 16.0101 49.0297 16.0292M30.8551 31.928C30.9155 31.931 30.9725 31.956 31.0153 31.9981C31.058 32.0403 31.0833 32.0967 31.0863 32.1562V35.2629C31.0863 37.1013 29.5761 38.5918 27.7132 38.5918C25.8502 38.5918 24.34 37.1013 24.34 35.2629C24.34 33.4245 25.8502 31.9341 27.7132 31.9341L30.8551 31.928Z" fill="#10B6BC"/>
</svg>
