<svg width="64" height="64" viewBox="0 0 64 64" xmlns="http://www.w3.org/2000/svg">
<circle cx="32" cy="32" r="31.5" stroke="#10B6BC"/>
<path d="M51.5 23.348C51.5134 22.6942 51.3485 22.0491 51.023 21.482C50.6805 20.9255 50.1959 20.4704 49.619 20.1635C44.425 17.2955 39.2285 14.429 34.0295 11.564C33.4028 11.1866 32.6837 10.9901 31.9522 10.9965C31.2206 11.0028 30.5051 11.2117 29.885 11.6C27.818 12.7685 17.4725 18.4475 14.3885 20.159C13.802 20.4542 13.3124 20.9114 12.9777 21.4763C12.643 22.0412 12.4772 22.6903 12.5 23.3465V40.655C12.4848 41.2941 12.6402 41.9258 12.95 42.485C13.2942 43.0577 13.7893 43.5247 14.381 43.835C17.465 45.5465 27.812 51.2255 29.879 52.394C30.4988 52.7827 31.2142 52.9921 31.9457 52.999C32.6773 53.0059 33.3965 52.81 34.0235 52.433C39.2135 49.562 44.4065 46.6955 49.6025 43.8335C50.1943 43.5228 50.6897 43.0559 51.035 42.4835C51.3448 41.9243 51.5001 41.2926 51.485 40.6535V23.348" fill="#10B6BC"/>
<path d="M50.8235 42.7565C50.9023 42.6699 50.9759 42.5787 51.044 42.4835C51.3538 41.9243 51.5092 41.2926 51.494 40.6535V23.348C51.5074 22.6942 51.3425 22.0491 51.017 21.482C50.963 21.3935 50.8835 21.3245 50.822 21.242L32 32L50.8235 42.7565Z" fill="#10B6BC"/>
<path d="M50.8235 42.7565L32 32L13.1765 42.7565C13.4934 43.2043 13.9085 43.5737 14.39 43.8365C17.474 45.548 27.821 51.227 29.888 52.3955C30.5078 52.7842 31.2232 52.9936 31.9548 53.0005C32.6863 53.0074 33.4055 52.8115 34.0325 52.4345C39.2225 49.5635 44.4155 46.697 49.6115 43.835C50.0923 43.5724 50.5068 43.2035 50.8235 42.7565Z" fill="#10B6BC"/>
<path d="M37.3999 35.03C36.7318 36.2183 35.6895 37.1524 34.4354 37.6868C33.1812 38.2213 31.7856 38.3262 30.4657 37.9852C29.1457 37.6442 27.9755 36.8764 27.1372 35.8014C26.2989 34.7263 25.8395 33.4043 25.8305 32.041C25.8215 30.6778 26.2634 29.3498 27.0874 28.2638C27.9115 27.1777 29.0714 26.3946 30.3867 26.0362C31.702 25.6778 33.0989 25.7642 34.36 26.2821C35.6211 26.7999 36.6756 27.7201 37.3594 28.8995L42.7819 25.79C41.4056 23.4279 39.2908 21.5839 36.7633 20.542C34.2358 19.5002 31.4358 19.3182 28.7947 20.0242C26.1537 20.7301 23.8179 22.2849 22.1474 24.4489C20.4769 26.613 19.5642 29.2662 19.5499 32C19.5461 34.1679 20.1153 36.2984 21.1999 38.1755C22.2972 40.0719 23.8744 41.646 25.773 42.7395C27.6716 43.833 29.8246 44.4073 32.0156 44.4047C34.2065 44.4021 36.3582 43.8227 38.2542 42.7248C40.1502 41.6268 41.7237 40.049 42.8164 38.15L37.3999 35.03Z"/>
<path d="M49.505 30.9065V29.0495H47.9945V27.5405H46.136V29.0495H43.874V27.5405H42.0155V29.0495H40.5035V30.9065H42.0125V33.176H40.5035V35.0315H42.0125V36.5405H43.871V35.0315H46.1345V36.5405H47.993V35.0315H49.502V33.176H48.002V30.9065H49.505ZM46.136 33.176H43.874V30.9065H46.136V33.176Z" />
</svg>
