<svg width="64" height="64" viewBox="0 0 64 64" fill="none" xmlns="http://www.w3.org/2000/svg">
<circle cx="32" cy="32" r="31.5" fill="#343434" stroke="#10B6BC"/>
<path d="M19.766 41.264C18.754 41.264 17.8373 41.1027 17.016 40.78C16.2093 40.4427 15.5127 39.944 14.926 39.284C14.354 38.624 13.914 37.81 13.606 36.842C13.298 35.8593 13.144 34.7227 13.144 33.432C13.144 32.1413 13.298 30.9973 13.606 30C13.914 28.988 14.354 28.1447 14.926 27.47C15.5127 26.7807 16.2093 26.26 17.016 25.908C17.8373 25.556 18.754 25.38 19.766 25.38C21.1447 25.38 22.2887 25.6733 23.198 26.26C24.1073 26.8467 24.8333 27.734 25.376 28.922L22.89 30.242C22.67 29.5527 22.3107 29.0027 21.812 28.592C21.3133 28.1667 20.6313 27.954 19.766 27.954C18.6807 27.954 17.8153 28.3207 17.17 29.054C16.5393 29.7873 16.224 30.814 16.224 32.134V34.554C16.224 35.8887 16.5393 36.9153 17.17 37.634C17.8153 38.338 18.6807 38.69 19.766 38.69C20.6313 38.69 21.3353 38.4553 21.878 37.986C22.4353 37.5167 22.8387 36.9373 23.088 36.248L25.442 37.634C24.8847 38.778 24.144 39.6727 23.22 40.318C22.296 40.9487 21.1447 41.264 19.766 41.264ZM32.6932 41.264C31.3732 41.264 30.2512 41.0293 29.3272 40.56C28.4179 40.0907 27.6332 39.4747 26.9732 38.712L28.9312 36.82C29.4592 37.436 30.0459 37.9053 30.6912 38.228C31.3512 38.5507 32.0772 38.712 32.8692 38.712C33.7639 38.712 34.4386 38.5213 34.8932 38.14C35.3479 37.744 35.5752 37.216 35.5752 36.556C35.5752 36.0427 35.4286 35.6247 35.1352 35.302C34.8419 34.9793 34.2919 34.7447 33.4852 34.598L32.0332 34.378C28.9679 33.894 27.4352 32.4053 27.4352 29.912C27.4352 29.2227 27.5599 28.5993 27.8092 28.042C28.0732 27.4847 28.4472 27.008 28.9312 26.612C29.4152 26.216 29.9946 25.9153 30.6692 25.71C31.3586 25.49 32.1359 25.38 33.0012 25.38C34.1599 25.38 35.1719 25.5707 36.0372 25.952C36.9026 26.3333 37.6432 26.898 38.2592 27.646L36.2792 29.516C35.8979 29.0467 35.4359 28.6653 34.8932 28.372C34.3506 28.0787 33.6686 27.932 32.8472 27.932C32.0112 27.932 31.3806 28.0933 30.9552 28.416C30.5446 28.724 30.3392 29.164 30.3392 29.736C30.3392 30.3227 30.5079 30.7553 30.8452 31.034C31.1826 31.3127 31.7252 31.518 32.4732 31.65L33.9032 31.914C35.4579 32.1927 36.6019 32.6913 37.3352 33.41C38.0832 34.114 38.4572 35.104 38.4572 36.38C38.4572 37.1133 38.3252 37.7807 38.0612 38.382C37.8119 38.9687 37.4379 39.482 36.9392 39.922C36.4552 40.3473 35.8539 40.6773 35.1352 40.912C34.4312 41.1467 33.6172 41.264 32.6932 41.264ZM45.8632 41.264C44.5432 41.264 43.4212 41.0293 42.4972 40.56C41.5878 40.0907 40.8032 39.4747 40.1432 38.712L42.1012 36.82C42.6292 37.436 43.2158 37.9053 43.8612 38.228C44.5212 38.5507 45.2472 38.712 46.0392 38.712C46.9338 38.712 47.6085 38.5213 48.0632 38.14C48.5178 37.744 48.7452 37.216 48.7452 36.556C48.7452 36.0427 48.5985 35.6247 48.3052 35.302C48.0118 34.9793 47.4618 34.7447 46.6552 34.598L45.2032 34.378C42.1378 33.894 40.6052 32.4053 40.6052 29.912C40.6052 29.2227 40.7298 28.5993 40.9792 28.042C41.2432 27.4847 41.6172 27.008 42.1012 26.612C42.5852 26.216 43.1645 25.9153 43.8392 25.71C44.5285 25.49 45.3058 25.38 46.1712 25.38C47.3298 25.38 48.3418 25.5707 49.2072 25.952C50.0725 26.3333 50.8132 26.898 51.4292 27.646L49.4492 29.516C49.0678 29.0467 48.6058 28.6653 48.0632 28.372C47.5205 28.0787 46.8385 27.932 46.0172 27.932C45.1812 27.932 44.5505 28.0933 44.1252 28.416C43.7145 28.724 43.5092 29.164 43.5092 29.736C43.5092 30.3227 43.6778 30.7553 44.0152 31.034C44.3525 31.3127 44.8952 31.518 45.6432 31.65L47.0732 31.914C48.6278 32.1927 49.7718 32.6913 50.5052 33.41C51.2532 34.114 51.6272 35.104 51.6272 36.38C51.6272 37.1133 51.4952 37.7807 51.2312 38.382C50.9818 38.9687 50.6078 39.482 50.1092 39.922C49.6252 40.3473 49.0238 40.6773 48.3052 40.912C47.6012 41.1467 46.7872 41.264 45.8632 41.264Z" fill="#10B6BC"/>
</svg>
