<svg width="64" height="64" viewBox="0 0 64 64" xmlns="http://www.w3.org/2000/svg">
<circle cx="32" cy="32" r="32" />
<path d="M32 50C27 50 22.75 48.25 19.25 44.75C15.75 41.25 14 37 14 32C14 27 15.75 22.75 19.25 19.25C22.75 15.75 27 14 32 14C32.4667 14 32.9253 14.0167 33.376 14.05C33.8267 14.0833 34.268 14.1333 34.7 14.2C33.3333 15.1667 32.2413 16.4253 31.424 17.976C30.6067 19.5267 30.1987 21.2013 30.2 23C30.2 26 31.25 28.55 33.35 30.65C35.45 32.75 38 33.8 41 33.8C42.8333 33.8 44.5167 33.3913 46.05 32.574C47.5833 31.7567 48.8333 30.6653 49.8 29.3C49.8667 29.7333 49.9167 30.1747 49.95 30.624C49.9833 31.0733 50 31.532 50 32C50 37 48.25 41.25 44.75 44.75C41.25 48.25 37 50 32 50Z" fill="#10B6BC"/>
</svg>
