<svg width="64" height="64" viewBox="0 0 64 64" xmlns="http://www.w3.org/2000/svg">
<circle cx="32" cy="32" r="31.5" stroke="#10B6BC"/>
<path d="M51.62 28.84C51.5 28.76 50.5 27.98 48.34 27.98C47.78 27.98 47.22 28.04 46.66 28.14C46.24 25.34 43.9 23.92 43.8 23.86L43.22 23.52L42.86 24.06C42.38 24.78 42 25.6 41.84 26.44C41.44 28.04 41.68 29.56 42.5 30.86C41.52 31.42 39.92 31.56 39.58 31.56H13.24C12.56 31.56 12 32.12 12 32.82C12 35.12 12.36 37.42 13.16 39.58C14.06 41.96 15.42 43.72 17.16 44.8C19.12 46 22.34 46.68 26 46.68C27.58 46.68 29.22 46.54 30.84 46.24C33.08 45.84 35.24 45.06 37.22 43.92C38.8598 42.9823 40.3276 41.7716 41.56 40.34C43.66 38 44.9 35.34 45.8 33.04H46.18C48.46 33.04 49.88 32.12 50.66 31.34C51.18 30.86 51.56 30.28 51.84 29.6L52 29.12L51.62 28.84ZM15.7 30.82H19.22C19.38 30.82 19.54 30.68 19.54 30.5V27.34C19.54 27.18 19.4 27.02 19.22 27.02H15.7C15.52 27.02 15.38 27.16 15.38 27.34V30.5C15.4 30.68 15.52 30.82 15.7 30.82ZM20.56 30.82H24.08C24.24 30.82 24.4 30.68 24.4 30.5V27.34C24.4 27.18 24.26 27.02 24.08 27.02H20.56C20.38 27.02 20.24 27.16 20.24 27.34V30.5C20.26 30.68 20.38 30.82 20.56 30.82ZM25.5 30.82H29C29.2 30.82 29.34 30.68 29.34 30.5V27.34C29.34 27.18 29.22 27.02 29 27.02H25.5C25.34 27.02 25.2 27.16 25.2 27.34V30.5C25.2 30.68 25.32 30.82 25.5 30.82ZM30.38 30.82H33.92C34.08 30.82 34.22 30.68 34.22 30.5V27.34C34.22 27.18 34.1 27.02 33.92 27.02H30.38C30.22 27.02 30.08 27.16 30.08 27.34V30.5C30.08 30.68 30.22 30.82 30.38 30.82ZM20.56 26.34H24.08C24.24 26.34 24.4 26.16 24.4 25.98V22.84C24.4 22.66 24.26 22.52 24.08 22.52H20.56C20.38 22.52 20.24 22.64 20.24 22.84V25.98C20.26 26.16 20.38 26.34 20.56 26.34ZM25.5 26.34H29C29.2 26.34 29.34 26.16 29.34 25.98V22.84C29.34 22.66 29.22 22.52 29 22.52H25.5C25.34 22.52 25.2 22.64 25.2 22.84V25.98C25.2 26.16 25.32 26.34 25.5 26.34ZM30.38 26.34H33.92C34.08 26.34 34.22 26.16 34.22 25.98V22.84C34.22 22.66 34.08 22.52 33.92 22.52H30.38C30.22 22.52 30.08 22.64 30.08 22.84V25.98C30.08 26.16 30.22 26.34 30.38 26.34ZM30.38 21.78H33.92C34.08 21.78 34.22 21.64 34.22 21.46V18.34C34.22 18.14 34.08 18 33.92 18H30.38C30.22 18 30.08 18.12 30.08 18.34V21.46C30.08 21.62 30.22 21.78 30.38 21.78ZM35.3 30.82H38.82C39 30.82 39.14 30.68 39.14 30.5V27.34C39.14 27.18 39 27.02 38.82 27.02H35.3C35.14 27.02 35 27.16 35 27.34V30.5C35 30.68 35.14 30.82 35.3 30.82Z" fill="#10B6BC"/>
</svg>
