<svg width="64" height="64" viewBox="0 0 64 64"  xmlns="http://www.w3.org/2000/svg">
<circle cx="32" cy="32" r="32" />
<g clip-path="url(#clip0_3_18)">
<mask id="mask0_3_18" style="mask-type:luminance" maskUnits="userSpaceOnUse" x="12" y="12" width="41" height="41">
<path d="M32.5 53C43.8218 53 53 43.8218 53 32.5C53 21.1782 43.8218 12 32.5 12C21.1782 12 12 21.1782 12 32.5C12 43.8218 21.1782 53 32.5 53Z" fill="white"/>
</mask>
<g mask="url(#mask0_3_18)">
<path d="M12 12L12.6406 13.7617L12 15.6035V17.4453L14.5625 21.7695L12 26.0938V28.6562L14.5625 32.5L12 36.3438V38.9062L14.5625 43.2305L12 47.5547V53L13.7617 52.3594L15.6035 53H17.4453L21.7695 50.4375L26.0938 53H28.6562L32.5 50.4375L36.3438 53H38.9062L43.2305 50.4375L47.5547 53H53L52.3594 51.2383L53 49.3965V47.5547L50.4375 43.2305L53 38.9062V36.3438L50.4375 32.5L53 28.6562V26.0938L50.4375 21.7695L53 17.4453V12L51.2383 12.6406L49.3965 12H47.5547L43.2305 14.5625L38.9062 12H36.3438L32.5 14.5625L28.6562 12H26.0938L21.7695 14.5625L17.4453 12H12Z" fill="#EEEEEE"/>
<path d="M38.9062 12V20.6484L47.5547 12H38.9062ZM53 17.4453L44.3516 26.0938H53V17.4453ZM12 26.0938H20.6484L12 17.4453V26.0938ZM17.4453 12L26.0938 20.6484V12H17.4453ZM26.0938 53V44.3516L17.4453 53H26.0938ZM12 47.5547L20.6484 38.9062H12V47.5547ZM53 38.9062H44.3516L53 47.5547V38.9062ZM47.5547 53L38.9062 44.3516V53H47.5547Z" fill="#0052B4"/>
<path d="M12 12V15.6035L22.4902 26.0938H26.0938L12 12ZM28.6562 12V28.6562H12V36.3438H28.6562V53H36.3438V36.3438H53V28.6562H36.3438V12H28.6562ZM49.3965 12L38.9062 22.4902V26.0938L53 12H49.3965ZM26.0938 38.9062L12 53H15.6035L26.0938 42.5098V38.9062ZM38.9062 38.9062L53 53V49.3965L42.5098 38.9062H38.9062Z" fill="#D80027"/>
</g>
</g>
<defs>
<clipPath id="clip0_3_18">
<rect width="41" height="41" fill="white" transform="translate(12 12)"/>
</clipPath>
</defs>
</svg>
