<svg width="44" height="44" viewBox="0 0 44 44" fill="none" xmlns="http://www.w3.org/2000/svg">
<path d="M36.9809 38.4476L38.4476 36.9809L34.5714 33.1048V27.2381H32.4762V33.9428L36.9809 38.4476ZM16.7619 8.38095H25.1429V4.19047H16.7619V8.38095ZM26.113 40.9367C24.0694 38.8932 23.0476 36.4222 23.0476 33.5238C23.0476 30.6254 24.0694 28.1551 26.113 26.1129C28.1565 24.0708 30.6268 23.049 33.5238 23.0476C36.4208 23.0462 38.8918 24.068 40.9368 26.1129C42.9817 28.1579 44.0028 30.6282 44 33.5238C43.9972 36.4194 42.9754 38.8904 40.9347 40.9367C38.8939 42.9831 36.4236 44.0042 33.5238 44C30.624 43.9958 28.1537 42.9761 26.113 40.9367ZM4.19048 39.8095C3.03809 39.8095 2.05194 39.3995 1.232 38.5796C0.412064 37.7597 0.00139683 36.7728 0 35.619V12.5714C0 11.419 0.410667 10.4329 1.232 9.61295C2.05333 8.79301 3.03949 8.38235 4.19048 8.38095H12.5714V4.19047C12.5714 3.03809 12.9821 2.05194 13.8034 1.232C14.6248 0.412063 15.6109 0.00139682 16.7619 0H25.1429C26.2952 0 27.2821 0.410667 28.1034 1.232C28.9248 2.05333 29.3347 3.03949 29.3333 4.19047V8.38095H37.7143C38.8667 8.38095 39.8535 8.79162 40.6749 9.61295C41.4962 10.4343 41.9062 11.4204 41.9048 12.5714V21.5286C40.6825 20.6555 39.3556 19.9921 37.9238 19.5381C36.4921 19.0841 35.0254 18.8571 33.5238 18.8571C29.473 18.8571 26.0159 20.2889 23.1524 23.1524C20.2889 26.0159 18.8571 29.473 18.8571 33.5238C18.8571 34.6063 18.971 35.6805 19.1987 36.7463C19.4263 37.8121 19.7839 38.8331 20.2714 39.8095H4.19048Z" fill="#10B6BC"/>
</svg>
