<svg xmlns="http://www.w3.org/2000/svg" fill="none" viewBox="4.64 2.11 16.87 23.63">
<path d="M20.0549 10.125C20.7304 9.4875 21.1991 8.66196 21.4003 7.75519C21.6014 6.84841 21.5259 5.90212 21.1834 5.03875C20.8409 4.17538 20.2472 3.43466 19.4791 2.91241C18.711 2.39016 17.8038 2.11042 16.875 2.10938H9.28125C8.35242 2.11042 7.44528 2.39016 6.67718 2.91241C5.90908 3.43466 5.31537 4.17538 4.97286 5.03875C4.63035 5.90212 4.55481 6.84841 4.756 7.75519C4.95719 8.66196 5.42585 9.4875 6.10137 10.125C5.62946 10.5681 5.25571 11.1052 5.00423 11.7016C4.75275 12.2981 4.62913 12.9407 4.64136 13.5879C4.65358 14.2351 4.80138 14.8725 5.0752 15.459C5.34903 16.0456 5.74279 16.5682 6.23109 16.9931C5.62042 17.5686 5.16237 18.2869 4.89815 19.0833C4.63393 19.8797 4.57182 20.7294 4.71741 21.5558C4.863 22.3822 5.21172 23.1594 5.73221 23.8176C6.2527 24.4758 6.92863 24.9943 7.69921 25.3264C8.46979 25.6586 9.31084 25.794 10.1467 25.7204C10.9826 25.6469 11.7871 25.3667 12.4879 24.9052C13.1886 24.4436 13.7637 23.8151 14.1613 23.0761C14.5589 22.3372 14.7665 21.511 14.7656 20.6719V17.6312C15.7597 18.1335 16.9014 18.2616 17.9821 17.9919C19.0627 17.7222 20.0104 17.0729 20.652 16.1624C21.2935 15.2519 21.5862 14.141 21.4766 13.0326C21.367 11.9242 20.8624 10.8922 20.0549 10.125ZM18.9844 6.75C18.9844 7.30944 18.7621 7.84597 18.3666 8.24155C17.971 8.63714 17.4344 8.85938 16.875 8.85938H14.7656V4.64063H16.875C17.4344 4.64063 17.971 4.86286 18.3666 5.25845C18.7621 5.65403 18.9844 6.19056 18.9844 6.75ZM7.17187 6.75C7.17187 6.19056 7.39411 5.65403 7.7897 5.25845C8.18528 4.86286 8.72181 4.64063 9.28125 4.64063H12.2344V8.85938H9.28125C8.72181 8.85938 8.18528 8.63714 7.7897 8.24155C7.39411 7.84597 7.17187 7.30944 7.17187 6.75ZM9.28125 15.6094C8.72181 15.6094 8.18528 15.3871 7.7897 14.9916C7.39411 14.596 7.17187 14.0594 7.17187 13.5C7.17187 12.9406 7.39411 12.404 7.7897 12.0084C8.18528 11.6129 8.72181 11.3906 9.28125 11.3906H12.2344V15.6094H9.28125ZM12.2344 20.6719C12.2344 21.1725 12.0859 21.6619 11.8078 22.0782C11.5296 22.4944 11.1343 22.8189 10.6718 23.0104C10.2093 23.202 9.70032 23.2522 9.2093 23.1545C8.71829 23.0568 8.26726 22.8157 7.91326 22.4617C7.55926 22.1077 7.31818 21.6567 7.22051 21.1657C7.12284 20.6747 7.17297 20.1657 7.36455 19.7032C7.55614 19.2407 7.88057 18.8454 8.29684 18.5672C8.7131 18.2891 9.20249 18.1406 9.70312 18.1406H12.2344V20.6719ZM16.875 15.6094C16.4578 15.6094 16.05 15.4857 15.7031 15.2539C15.3562 15.0221 15.0858 14.6927 14.9262 14.3072C14.7665 13.9218 14.7248 13.4977 14.8062 13.0885C14.8875 12.6793 15.0884 12.3034 15.3834 12.0084C15.6784 11.7134 16.0543 11.5125 16.4635 11.4312C16.8727 11.3498 17.2968 11.3915 17.6822 11.5512C18.0677 11.7108 18.3971 11.9812 18.6289 12.3281C18.8607 12.675 18.9844 13.0828 18.9844 13.5C18.9844 14.0594 18.7621 14.596 18.3666 14.9916C17.971 15.3871 17.4344 15.6094 16.875 15.6094Z" fill="#363636"/>
</svg>