<svg width="64" height="64" viewBox="0 0 64 64" fill="none" xmlns="http://www.w3.org/2000/svg">
<circle cx="32" cy="32" r="31.5" fill="#343434" stroke="#10B6BC"/>
<path fill-rule="evenodd" clip-rule="evenodd" d="M25.17 26.334C24.4916 26.334 23.8198 26.4676 23.1931 26.7272C22.5663 26.9869 21.9968 27.3674 21.5171 27.8471C21.0374 28.3268 20.6569 28.8963 20.3972 29.5231C20.1376 30.1498 20.004 30.8216 20.004 31.5C20.004 32.1784 20.1376 32.8502 20.3972 33.4769C20.6569 34.1037 21.0374 34.6732 21.5171 35.1529C21.9968 35.6326 22.5663 36.0131 23.1931 36.2728C23.8198 36.5324 24.4916 36.666 25.17 36.666H30.336V26.334H25.17ZM30.336 23.334H25.17C23.7996 23.334 22.4854 22.7896 21.5164 21.8206C20.5474 20.8516 20.003 19.5374 20.003 18.167C20.003 16.7966 20.5474 15.4824 21.5164 14.5134C22.4854 13.5444 23.7996 13 25.17 13H30.336V23.334ZM33.336 13V23.334H38.502C39.8548 23.3074 41.1432 22.7513 42.0904 21.7852C43.0377 20.8191 43.5683 19.52 43.5683 18.167C43.5683 16.814 43.0377 15.5149 42.0904 14.5488C41.1432 13.5827 39.8548 13.0266 38.502 13H33.336ZM38.502 26.332C37.146 26.3318 35.8443 26.8648 34.8778 27.816C33.9113 28.7671 33.3575 30.0602 33.336 31.416V31.582C33.3526 32.6 33.6696 33.5904 34.2472 34.4288C34.8248 35.2673 35.6373 35.9163 36.5826 36.2945C37.5279 36.6726 38.5638 36.763 39.5603 36.5543C40.5569 36.3456 41.4695 35.847 42.1836 35.1213C42.8977 34.3956 43.3814 33.4751 43.574 32.4753C43.7666 31.4756 43.6596 30.4412 43.2662 29.5021C42.8729 28.5631 42.2108 27.7612 41.3632 27.1971C40.5155 26.6331 39.5201 26.3321 38.502 26.332ZM25.17 39.666C24.1478 39.6656 23.1484 39.9684 22.2983 40.536C21.4481 41.1036 20.7854 41.9106 20.394 42.8549C20.0025 43.7992 19.8999 44.8384 20.0991 45.841C20.2982 46.8436 20.7903 47.7647 21.513 48.4876C22.2356 49.2106 23.1565 49.703 24.159 49.9025C25.1616 50.1021 26.2008 49.9999 27.1452 49.6088C28.0897 49.2177 28.8969 48.5553 29.4649 47.7054C30.0329 46.8555 30.336 45.8562 30.336 44.834V39.666H25.17Z" fill="#10B6BC"/>
</svg>
