<svg width="64" height="64" viewBox="0 0 64 64" fill="none" xmlns="http://www.w3.org/2000/svg">
<circle cx="32" cy="32" r="31.5" fill="#343434" stroke="#10B6BC"/>
<path d="M13.185 29.165L24.745 17.585L28.125 20.985C27.645 22.685 28.425 24.545 29.985 25.445V36.525C28.785 37.205 27.985 38.505 27.985 39.985C27.985 41.0459 28.4064 42.0633 29.1566 42.8134C29.9067 43.5636 30.9241 43.985 31.985 43.985C33.0459 43.985 34.0633 43.5636 34.8134 42.8134C35.5636 42.0633 35.985 41.0459 35.985 39.985C35.985 38.505 35.185 37.205 33.985 36.525V26.805L38.125 30.985C37.985 31.285 37.985 31.625 37.985 31.985C37.985 33.0459 38.4064 34.0633 39.1566 34.8134C39.9067 35.5636 40.9241 35.985 41.985 35.985C43.0459 35.985 44.0633 35.5636 44.8134 34.8134C45.5636 34.0633 45.985 33.0459 45.985 31.985C45.985 30.9241 45.5636 29.9067 44.8134 29.1566C44.0633 28.4064 43.0459 27.985 41.985 27.985C41.625 27.985 41.285 27.985 40.985 28.125L35.845 22.985C36.0933 22.0587 35.9971 21.0737 35.5741 20.213C35.1511 19.3523 34.4301 18.6743 33.545 18.305C32.685 17.985 31.785 17.905 30.985 18.125L27.585 14.745L29.165 13.185C30.725 11.605 33.245 11.605 34.805 13.185L50.785 29.165C52.365 30.725 52.365 33.245 50.785 34.805L34.805 50.785C33.245 52.365 30.725 52.365 29.165 50.785L13.185 34.805C11.605 33.245 11.605 30.725 13.185 29.165Z" fill="#10B6BC"/>
</svg>
