<svg xmlns="http://www.w3.org/2000/svg" fill="none" viewBox="0.83 0.83 38.33 37.4">
<path d="M20 0.833374C17.483 0.833374 14.9906 1.32913 12.6652 2.29235C10.3398 3.25556 8.22691 4.66737 6.44712 6.44716C2.85267 10.0416 0.833334 14.9167 0.833334 20C0.833334 28.4717 6.33417 35.6592 13.9433 38.2084C14.9017 38.3617 15.2083 37.7675 15.2083 37.25V34.0109C9.89917 35.1609 8.76833 31.4425 8.76833 31.4425C7.88667 29.2192 6.64083 28.625 6.64083 28.625C4.89667 27.4367 6.775 27.475 6.775 27.475C8.69167 27.6092 9.7075 29.4492 9.7075 29.4492C11.375 32.3625 14.1925 31.5 15.285 31.04C15.4575 29.7942 15.9558 28.9509 16.4925 28.4717C12.2375 27.9925 7.77167 26.3442 7.77167 19.0417C7.77167 16.9142 8.5 15.2084 9.74583 13.8475C9.55417 13.3684 8.88333 11.375 9.9375 8.78754C9.9375 8.78754 11.5475 8.27004 15.2083 10.7425C16.7225 10.3209 18.3708 10.11 20 10.11C21.6292 10.11 23.2775 10.3209 24.7917 10.7425C28.4525 8.27004 30.0625 8.78754 30.0625 8.78754C31.1167 11.375 30.4458 13.3684 30.2542 13.8475C31.5 15.2084 32.2283 16.9142 32.2283 19.0417C32.2283 26.3634 27.7433 27.9734 23.4692 28.4525C24.1592 29.0467 24.7917 30.2159 24.7917 31.9984V37.25C24.7917 37.7675 25.0983 38.3809 26.0758 38.2084C33.685 35.64 39.1667 28.4717 39.1667 20C39.1667 17.483 38.6709 14.9907 37.7077 12.6653C36.7445 10.3399 35.3327 8.22695 33.5529 6.44716C31.7731 4.66737 29.6602 3.25556 27.3348 2.29235C25.0094 1.32913 22.517 0.833374 20 0.833374Z" fill="#39B5CB"/>
</svg>