<svg width="49" height="49" viewBox="0 0 49 49" xmlns="http://www.w3.org/2000/svg">
<path d="M24.5 0C21.2826 0 18.0967 0.649445 15.1243 1.91125C12.1518 3.17306 9.45092 5.02252 7.17588 7.35404C2.58124 12.0628 0 18.4491 0 25.1083C0 36.2061 7.0315 45.6217 16.758 48.9611C17.983 49.162 18.375 48.3836 18.375 47.7057V43.4624C11.5885 44.9689 10.143 40.0979 10.143 40.0979C9.016 37.1853 7.4235 36.407 7.4235 36.407C5.194 34.8503 7.595 34.9005 7.595 34.9005C10.045 35.0762 11.3435 37.4866 11.3435 37.4866C13.475 41.3031 17.0765 40.1732 18.473 39.5706C18.6935 37.9386 19.3305 36.8338 20.0165 36.2061C14.5775 35.5784 8.869 33.4191 8.869 23.8528C8.869 21.0658 9.8 18.8312 11.3925 17.0485C11.1475 16.4208 10.29 13.8095 11.6375 10.4199C11.6375 10.4199 13.6955 9.74201 18.375 12.981C20.3105 12.4286 22.4175 12.1524 24.5 12.1524C26.5825 12.1524 28.6895 12.4286 30.625 12.981C35.3045 9.74201 37.3625 10.4199 37.3625 10.4199C38.71 13.8095 37.8525 16.4208 37.6075 17.0485C39.2 18.8312 40.131 21.0658 40.131 23.8528C40.131 33.4442 34.398 35.5533 28.9345 36.181C29.8165 36.9594 30.625 38.491 30.625 40.826V47.7057C30.625 48.3836 31.017 49.1871 32.2665 48.9611C41.993 45.5966 49 36.2061 49 25.1083C49 21.811 48.3663 18.546 47.1351 15.4997C45.9038 12.4535 44.0992 9.68556 41.8241 7.35404C39.5491 5.02252 36.8482 3.17306 33.8757 1.91125C30.9033 0.649445 27.7174 0 24.5 0Z" />
</svg>
