<svg width="64" height="64" viewBox="0 0 64 64" fill="none" xmlns="http://www.w3.org/2000/svg">
<circle cx="32" cy="32" r="31.5" fill="#343434" stroke="#10B6BC"/>
<path d="M17.09 33.69H11.852V39H9.476V26.436H11.852V31.584H17.09V26.436H19.466V39H17.09V33.69ZM27.3455 28.542V39H24.9695V28.542H21.4055V26.436H30.9095V28.542H27.3455ZM42.3409 29.982H42.2689L41.2969 31.98L38.7229 36.732L36.1489 31.98L35.1769 29.982H35.1049V39H32.8549V26.436H35.5369L38.7589 32.574H38.8309L42.0169 26.436H44.5909V39H42.3409V29.982ZM47.5502 39V26.436H49.9262V36.894H54.8762V39H47.5502Z" fill="#10B6BC"/>
</svg>
