<svg xmlns="http://www.w3.org/2000/svg" fill="none" viewBox="0.83 0.83 38.33 38.33">
<path d="M11.95 0.833374H28.05C34.1833 0.833374 39.1667 5.81671 39.1667 11.95V28.05C39.1667 30.9984 37.9954 33.8259 35.9107 35.9107C33.8259 37.9955 30.9983 39.1667 28.05 39.1667H11.95C5.81666 39.1667 0.833328 34.1834 0.833328 28.05V11.95C0.833328 9.00172 2.00455 6.17415 4.08932 4.08937C6.1741 2.00459 9.00167 0.833374 11.95 0.833374ZM11.5667 4.66671C9.73667 4.66671 7.98163 5.39367 6.68762 6.68767C5.39362 7.98167 4.66666 9.73671 4.66666 11.5667V28.4334C4.66666 32.2475 7.75249 35.3334 11.5667 35.3334H28.4333C30.2633 35.3334 32.0184 34.6064 33.3124 33.3124C34.6064 32.0184 35.3333 30.2634 35.3333 28.4334V11.5667C35.3333 7.75254 32.2475 4.66671 28.4333 4.66671H11.5667ZM30.0625 7.54171C30.6979 7.54171 31.3073 7.79412 31.7566 8.24343C32.2059 8.69274 32.4583 9.30213 32.4583 9.93754C32.4583 10.573 32.2059 11.1823 31.7566 11.6317C31.3073 12.081 30.6979 12.3334 30.0625 12.3334C29.4271 12.3334 28.8177 12.081 28.3684 11.6317C27.9191 11.1823 27.6667 10.573 27.6667 9.93754C27.6667 9.30213 27.9191 8.69274 28.3684 8.24343C28.8177 7.79412 29.4271 7.54171 30.0625 7.54171ZM20 10.4167C22.5417 10.4167 24.9792 11.4264 26.7764 13.2236C28.5737 15.0208 29.5833 17.4584 29.5833 20C29.5833 22.5417 28.5737 24.9793 26.7764 26.7765C24.9792 28.5737 22.5417 29.5834 20 29.5834C17.4583 29.5834 15.0208 28.5737 13.2236 26.7765C11.4263 24.9793 10.4167 22.5417 10.4167 20C10.4167 17.4584 11.4263 15.0208 13.2236 13.2236C15.0208 11.4264 17.4583 10.4167 20 10.4167ZM20 14.25C18.475 14.25 17.0125 14.8558 15.9341 15.9342C14.8558 17.0125 14.25 18.475 14.25 20C14.25 21.525 14.8558 22.9876 15.9341 24.0659C17.0125 25.1442 18.475 25.75 20 25.75C21.525 25.75 22.9875 25.1442 24.0659 24.0659C25.1442 22.9876 25.75 21.525 25.75 20C25.75 18.475 25.1442 17.0125 24.0659 15.9342C22.9875 14.8558 21.525 14.25 20 14.25Z" fill="#39B5CB"/>
</svg>