<svg width="64" height="64" viewBox="0 0 64 64" fill="none" xmlns="http://www.w3.org/2000/svg">
<circle cx="32" cy="32" r="31.5" fill="#343434" stroke="#10B6BC"/>
<path d="M14 14V50H50V14H14ZM33.5917 42.0761C33.5917 45.5797 31.5346 47.1791 28.5376 47.1791C25.8299 47.1791 24.2626 45.7816 23.459 44.0857L26.2156 42.422C26.7466 43.3619 27.2287 44.1577 28.3936 44.1577C29.5019 44.1577 30.209 43.7231 30.209 42.0286V30.5291H33.5917V42.0761ZM41.594 47.1791C38.4517 47.1791 36.419 45.6851 35.4303 43.7231L38.1869 42.1327C38.9107 43.3143 39.8583 44.1899 41.522 44.1899C42.9196 44.1899 43.8209 43.4904 43.8209 42.5184C43.8209 41.3613 42.9041 40.9511 41.3536 40.2684L40.5101 39.9071C38.0673 38.8709 36.4524 37.5607 36.4524 34.8041C36.4524 32.2649 38.3887 30.3363 41.4024 30.3363C43.556 30.3363 45.0989 31.0833 46.2084 33.044L43.5727 34.7321C42.9941 33.6959 42.3667 33.2857 41.3947 33.2857C40.4073 33.2857 39.7799 33.9131 39.7799 34.7321C39.7799 35.7453 40.4073 36.1541 41.8614 36.7893L42.7049 37.1506C45.5823 38.3797 47.1971 39.6423 47.1971 42.4696C47.1971 45.5077 44.8019 47.1779 41.5953 47.1779L41.594 47.1791Z" fill="#10B6BC"/>
</svg>
