<svg xmlns="http://www.w3.org/2000/svg" fill="none" viewBox="0 0 19 19">
<g clip-path="url(#clip0_417_29)">
<path d="M14.5469 0H4.45312C1.99373 0 0 1.99373 0 4.45312V14.5469C0 17.0063 1.99373 19 4.45312 19H14.5469C17.0063 19 19 17.0063 19 14.5469V4.45312C19 1.99373 17.0063 0 14.5469 0Z" fill="#363636"/>
<path d="M4.9958 15.8778L6.44975 14.9978C6.73029 15.4952 6.98546 15.916 7.59754 15.916C8.18424 15.916 8.55415 15.6865 8.55415 14.7938V8.72285H10.3397V14.819C10.3397 16.6683 9.25566 17.5101 7.67406 17.5101C6.24572 17.5101 5.41662 16.7704 4.99573 15.8776M11.3095 15.6864L12.7633 14.8447C13.1461 15.4697 13.6435 15.9288 14.5234 15.9288C15.2633 15.9288 15.735 15.5589 15.735 15.0487C15.735 14.4366 15.2504 14.2197 14.4341 13.8627L13.9878 13.6713C12.6996 13.123 11.8451 12.4342 11.8451 10.9803C11.8451 9.64109 12.8654 8.62073 14.4597 8.62073C15.5948 8.62073 16.4111 9.01616 16.9977 10.0492L15.6075 10.942C15.3014 10.3936 14.9699 10.1768 14.4597 10.1768C13.9368 10.1768 13.6052 10.5084 13.6052 10.942C13.6052 11.4776 13.9368 11.6945 14.702 12.0262L15.1483 12.2174C16.666 12.868 17.5206 13.531 17.5206 15.0232C17.5206 16.6303 16.258 17.5103 14.5617 17.5103C12.9037 17.5103 11.8324 16.7196 11.3095 15.6864Z" fill="#39B5CB"/>
</g>
<defs>
<clipPath id="clip0_417_29">
<rect width="19" height="19" fill="white"/>
</clipPath>
</defs>
</svg>