<svg width="49" height="39" viewBox="0 0 49 39" fill="none" xmlns="http://www.w3.org/2000/svg">
<path d="M4.9 39C3.5525 39 2.39937 38.5231 1.4406 37.5692C0.481833 36.6153 0.00163333 35.4672 0 34.125V4.875C0 3.53437 0.4802 2.38712 1.4406 1.43325C2.401 0.479374 3.55413 0.001625 4.9 0H44.1C45.4475 0 46.6014 0.47775 47.5618 1.43325C48.5222 2.38875 49.0016 3.536 49 4.875V34.125C49 35.4656 48.5206 36.6137 47.5618 37.5692C46.6031 38.5247 45.4491 39.0016 44.1 39H4.9ZM24.5 21.9375L44.1 9.75V4.875L24.5 17.0625L4.9 4.875V9.75L24.5 21.9375Z" fill="#343434"/>
</svg>
