<svg xmlns="http://www.w3.org/2000/svg" fill="none" viewBox="4.36 2.01 9.31 19.99">
<path d="M10.74 4.23001C9.89998 3.23001 9.16998 2.23001 9.02998 2.01001H8.99998C8.85998 2.22001 8.12998 3.23001 7.28998 4.23001C0.0899789 13.42 8.42998 19.62 8.42998 19.62L8.49998 19.67C8.55998 20.62 8.71998 22 8.71998 22H9.33998C9.33998 22 9.48998 20.63 9.54998 19.67L9.61998 19.61C9.61998 19.61 17.94 13.42 10.74 4.23001ZM8.99998 19.48C8.82472 19.336 8.66395 19.1753 8.51998 19L8.99998 9.00001L9.44998 19C9.31507 19.1735 9.16443 19.3342 8.99998 19.48Z" fill="#363636"/>
</svg>