<svg width="64" height="64" viewBox="0 0 64 64" xmlns="http://www.w3.org/2000/svg">
<circle cx="32" cy="32" r="31.5" stroke="#10B6BC"/>
<path d="M39.7088 18.8348C39.5075 18.8348 39.371 18.8588 39.2293 18.8915V18.9138H39.2537C39.3483 19.0925 39.5092 19.2231 39.6282 19.3829C39.7227 19.5667 39.8033 19.7505 39.8978 19.9326L39.9223 19.9069C40.0868 19.7935 40.1672 19.6114 40.1672 19.3347C40.0972 19.254 40.0868 19.1732 40.0273 19.0942C39.9573 18.9791 39.8067 18.9224 39.7122 18.8313L39.7088 18.8348ZM21.0975 41.5036H19.4753C19.4293 38.9724 19.2717 36.4444 19.0028 33.9267H18.9887L16.5212 41.5036H15.2875L12.8375 33.9267H12.82C12.6285 36.4484 12.5147 38.9751 12.4787 41.5036H11C11.0968 38.1246 11.336 34.9576 11.7175 32.0024H13.73L16.0662 38.9848H16.0803L18.4375 32.0024H20.3537C20.7772 35.4661 21.0269 38.6332 21.1027 41.5036H21.0975ZM28.1272 34.4937C27.4657 38.0089 26.5954 40.5632 25.5163 42.1565C24.6728 43.3866 23.7493 44.0011 22.746 44C22.48 44 22.1498 43.921 21.7555 43.7629V42.9141C21.9492 42.9439 22.1743 42.9588 22.431 42.9588C22.9 42.9588 23.2774 42.8317 23.5632 42.5774C23.9074 42.2681 24.0795 41.9216 24.0795 41.5379C24.0795 41.2711 23.9453 40.7304 23.677 39.916L21.9025 34.4937H23.495L24.7673 38.5484C25.0554 39.4693 25.175 40.1125 25.126 40.4779C25.826 38.6475 26.3131 36.6528 26.5872 34.4937H28.1272ZM49.696 41.5036H45.0935V32.0024H46.6423V40.3353H49.696V41.5036ZM43.886 41.7355L42.108 40.8765C42.2667 40.747 42.4154 40.6039 42.5543 40.4469C43.3114 39.5764 43.6894 38.2861 43.6883 36.576C43.6883 33.4319 42.4312 31.8592 39.917 31.8581C38.685 31.8581 37.7225 32.2573 37.0295 33.0556C36.2758 33.9284 35.899 35.2141 35.899 36.9128C35.8978 38.5839 36.2327 39.8095 36.9035 40.5895C37.5148 41.294 38.4382 41.6462 39.6737 41.6462C40.1357 41.6462 40.5587 41.5901 40.9425 41.4778L43.2612 42.8042L43.8913 41.7355H43.886ZM38.125 39.6016C37.7318 38.982 37.5352 37.9877 37.5352 36.619C37.5352 34.2251 38.2761 33.0281 39.7578 33.0281C40.5348 33.0281 41.1047 33.3145 41.4675 33.8872C41.8595 34.5091 42.0555 35.4959 42.0555 36.8475C42.0555 39.2609 41.3147 40.4681 39.833 40.4693C39.0548 40.4693 38.4843 40.1829 38.1215 39.6102L38.125 39.6016ZM35.2235 38.8714C35.2235 39.6801 34.9225 40.3421 34.3205 40.8576C33.7208 41.373 32.9135 41.6307 31.8985 41.6307C30.9482 41.6307 30.0365 41.3352 29.1458 40.7459L29.5605 39.9281C30.3258 40.3049 31.02 40.4928 31.643 40.4916C32.224 40.4916 32.6807 40.3656 33.0133 40.1136C33.1799 39.991 33.3144 39.8312 33.4056 39.6475C33.4969 39.4638 33.5424 39.2614 33.5382 39.057C33.5382 38.49 33.1357 38.0089 32.4042 37.6052C31.7253 37.2392 30.369 36.4764 30.369 36.4764C29.6305 35.9489 29.263 35.3837 29.263 34.4542C29.263 33.6821 29.5372 33.0608 30.0855 32.59C30.635 32.1135 31.3467 31.8758 32.2205 31.877C33.1177 31.877 33.9343 32.1118 34.6705 32.5814L34.2977 33.3992C33.7108 33.1448 33.0773 33.0103 32.4357 33.0041C31.9399 33.0041 31.5584 33.122 31.2913 33.358C31.1567 33.4682 31.0482 33.6058 30.9733 33.7612C30.8983 33.9167 30.8587 34.0863 30.8573 34.2583C30.8573 34.8218 31.2667 35.3063 32.0227 35.7187C32.7105 36.0881 34.1 36.8698 34.1 36.8698C34.8577 37.3938 35.234 37.9522 35.234 38.8766L35.2235 38.8714ZM51.642 28.817C50.7058 28.793 49.9795 28.8857 49.3722 29.14C49.1973 29.2087 48.9173 29.2087 48.8927 29.4269C48.989 29.518 49.003 29.6675 49.0853 29.7946C49.2253 30.0249 49.4667 30.3324 49.6908 30.4939C49.9334 30.6852 50.1825 30.8627 50.438 31.0265C50.893 31.3014 51.4093 31.4646 51.8555 31.7412C52.1093 31.9028 52.3682 32.1072 52.6255 32.279C52.7533 32.3649 52.8355 32.5196 53 32.5745V32.5402C52.9195 32.4371 52.895 32.2876 52.8162 32.1725C52.699 32.0574 52.5817 31.9543 52.4662 31.8409C52.1231 31.396 51.713 31.0049 51.25 30.6812C50.8755 30.4303 50.0565 30.0798 49.9025 29.6589L49.8797 29.6348C50.1353 29.6125 50.4398 29.5214 50.6847 29.4527C51.082 29.3496 51.446 29.372 51.8573 29.2706C52.0439 29.2225 52.2306 29.1687 52.4173 29.1091V29.006C52.2072 28.7998 52.0498 28.5198 51.8327 28.3274C51.2265 27.8083 50.5806 27.3356 49.9007 26.9133C49.5332 26.6831 49.0677 26.5354 48.681 26.3395C48.541 26.2708 48.3065 26.2364 48.226 26.1213C48.016 25.8705 47.8935 25.5371 47.7448 25.2382C47.4015 24.5835 47.0823 23.917 46.7875 23.24C46.5775 22.7899 46.4498 22.3414 46.1925 21.9291C44.985 19.9756 43.6777 18.7918 41.667 17.6338C41.2348 17.3933 40.7167 17.2902 40.169 17.163C39.8767 17.1493 39.5845 17.1287 39.294 17.1167C39.1015 17.0359 38.916 16.8177 38.7515 16.7129C38.0865 16.3006 36.3645 15.4071 35.8745 16.5892C35.5595 17.3349 36.3417 18.0702 36.613 18.4482C36.8142 18.7111 37.068 19.0117 37.208 19.3073C37.2902 19.5066 37.313 19.711 37.3953 19.9189C37.5807 20.424 37.7575 20.9876 38.0025 21.4601C38.1303 21.7006 38.2703 21.9532 38.4347 22.1696C38.5292 22.2951 38.6903 22.3535 38.727 22.5596C38.5625 22.7933 38.552 23.1335 38.4575 23.4187C38.0375 24.7193 38.202 26.3275 38.797 27.2845C38.9842 27.5697 39.4305 28.2019 40.0273 27.9597C40.5522 27.7535 40.4367 27.1006 40.5872 26.5251C40.6222 26.3876 40.5995 26.2965 40.6712 26.2038V26.2295C40.8358 26.5525 41.0002 26.8601 41.1507 27.1831C41.5112 27.7466 42.1413 28.3308 42.668 28.7208C42.948 28.927 43.1702 29.2843 43.5202 29.4115V29.3771H43.494C43.4188 29.2775 43.319 29.2294 43.2245 29.1486C43.0029 28.9351 42.7981 28.7054 42.612 28.4614C42.1204 27.7989 41.6833 27.0992 41.3047 26.3687C41.1122 26.0079 40.9513 25.6196 40.7973 25.264C40.7273 25.1265 40.7273 24.9203 40.61 24.8516C40.435 25.1025 40.1778 25.3207 40.05 25.6299C39.8278 26.1247 39.805 26.7329 39.721 27.3652C39.6738 27.3772 39.6965 27.3652 39.6737 27.3893C39.2992 27.2999 39.1715 26.9185 39.0315 26.5989C38.6815 25.7828 38.6238 24.4719 38.9265 23.5321C39.0088 23.2916 39.3587 22.5322 39.2188 22.3019C39.1453 22.0837 38.9143 21.9583 38.7865 21.7813C38.6224 21.5509 38.4817 21.3052 38.3665 21.0477C38.0865 20.4051 37.9465 19.6938 37.642 19.0513C37.502 18.754 37.257 18.443 37.0575 18.1699C36.8353 17.8606 36.5903 17.6424 36.4135 17.2764C36.3558 17.151 36.2735 16.9431 36.3662 16.8057C36.3907 16.7129 36.4397 16.6768 36.5308 16.651C36.6847 16.5273 37.117 16.6888 37.2692 16.7576C37.7015 16.9294 38.0655 17.0909 38.4277 17.3314C38.5923 17.4448 38.769 17.663 38.979 17.7197H39.224C39.5985 17.8005 40.0203 17.7438 40.3703 17.8451C40.9915 18.041 41.5515 18.3262 42.0538 18.6355C43.6015 19.6059 44.8603 20.9609 45.7025 22.5631C45.8425 22.8277 45.9037 23.0699 46.0315 23.3448C46.2765 23.9118 46.5793 24.4839 46.8278 25.032C47.0728 25.5732 47.309 26.1247 47.6607 26.5732C47.8358 26.8137 48.5392 26.9391 48.8543 27.0645C49.087 27.1676 49.4492 27.2621 49.6592 27.3875C50.0617 27.6281 50.4538 27.903 50.8317 28.1676C51.0243 28.2981 51.607 28.5851 51.642 28.817Z" fill="#10B6BC"/>
</svg>
