<svg width="64" height="64" viewBox="0 0 64 64" xmlns="http://www.w3.org/2000/svg">
<circle cx="32" cy="32" r="31.5" stroke="#10B6BC"/>
<g clip-path="url(#clip0_3_101)">
<path d="M14 14H50V50H14V14Z" fill="#10B6BC"/>
<path d="M20.4163 36.9999C20.1618 36.9999 19.9455 36.9151 19.7673 36.7455C19.5892 36.5715 19.5001 36.3649 19.5 36.1257C19.5 35.8821 19.5891 35.6733 19.7672 35.4993C19.9454 35.3253 20.1618 35.2383 20.4163 35.2383C20.6751 35.2383 20.8935 35.3253 21.0718 35.4993C21.2542 35.6733 21.3454 35.8821 21.3454 36.1257C21.3454 36.3648 21.2542 36.5714 21.0718 36.7455C20.8936 36.9152 20.6752 37.0001 20.4165 37.0001M30.5922 36.8566H28.9378L24.5785 29.9792C24.4698 29.8082 24.3781 29.6268 24.3049 29.4378H24.2666L24.2732 29.4807L24.2793 29.5299L24.2849 29.5852L24.2903 29.6465L24.2971 29.75L24.303 29.867L24.308 29.9978L24.3119 30.1423L24.3147 30.3005L24.3161 30.4138L24.3175 30.7231V36.8563H22.8539V27.5H24.6166L28.8293 34.2139L28.9334 34.3783L29.0005 34.4862L29.0579 34.5812L29.1057 34.6632L29.1324 34.7107L29.1549 34.7523L29.1732 34.7882H29.1985L29.1937 34.7586L29.1847 34.6954L29.1763 34.626L29.1688 34.5505L29.1654 34.5104L29.159 34.4258L29.1533 34.3351L29.1484 34.238L29.1425 34.0814L29.1383 33.911L29.1358 33.7267L29.1349 33.5289V27.5H30.5921L30.5922 36.8566ZM37.7198 36.8566H32.5971V27.5H37.5162V28.8181H34.1116V31.467H37.249V32.7785H34.1116V35.545H37.7198V36.8566ZM45.0002 28.8182H42.3781V36.8566H40.8636V28.8182H38.248V27.5H45L45.0002 28.8182Z" />
</g>
<defs>
<clipPath id="clip0_3_101">
<rect width="36" height="36" fill="white" transform="translate(14 14)"/>
</clipPath>
</defs>
</svg>
