<svg width="64" height="64" viewBox="0 0 64 64" xmlns="http://www.w3.org/2000/svg">
<circle cx="32" cy="32" r="31.5" stroke="#10B6BC"/>
<g clip-path="url(#clip0_137_28)">
<mask id="mask0_137_28" style="mask-type:luminance" maskUnits="userSpaceOnUse" x="8" y="8" width="48" height="48">
<path d="M8 8H56V56H8V8Z" fill="white"/>
</mask>
<g mask="url(#mask0_137_28)">
<mask id="path-3-inside-1_137_28" fill="white">
<path d="M30.428 8.01225C30.324 8.02225 29.996 8.05625 29.7 8.07825C22.884 8.69425 16.5 12.3723 12.452 18.0262C10.218 21.1305 8.76497 24.7273 8.216 28.5122C8.024 29.8322 8 30.2202 8 32.0082C8 33.7962 8.024 34.1862 8.216 35.5042C9.52 44.5182 15.936 52.0903 24.634 54.8963C26.192 55.3983 27.834 55.7403 29.7 55.9483C30.428 56.0283 33.572 56.0283 34.3 55.9483C37.522 55.5903 40.254 54.7923 42.946 53.4183C43.36 53.2083 43.44 53.1503 43.384 53.1043C42.0672 51.3677 40.7638 49.6209 39.474 47.8643L35.636 42.6783L30.828 35.5602C29.2282 33.1795 27.6135 30.8088 25.984 28.4482C25.966 28.4422 25.948 31.6043 25.938 35.4683C25.924 42.2283 25.918 42.5003 25.834 42.6603C25.7515 42.8466 25.6055 42.9975 25.422 43.0863C25.272 43.1623 25.142 43.1763 24.432 43.1763H23.62L23.404 43.0403C23.2703 42.9559 23.1619 42.837 23.09 42.6963L22.99 42.4863L23 33.0782L23.014 23.6663L23.16 23.4823C23.2569 23.3658 23.375 23.2688 23.508 23.1962C23.7 23.1022 23.774 23.0942 24.588 23.0942C25.544 23.0942 25.704 23.1303 25.952 23.4023C26.022 23.4783 28.626 27.4022 31.742 32.1262L41.21 46.4703L45.01 52.2263L45.204 52.1003C47.0331 50.8848 48.6911 49.4298 50.134 47.7743C53.158 44.3126 55.1197 40.0525 55.784 35.5042C55.976 34.1842 56 33.7962 56 32.0082C56 30.2202 55.976 29.8322 55.784 28.5122C54.48 19.5002 48.064 11.9262 39.366 9.12025C37.7404 8.60339 36.0664 8.25292 34.37 8.07425C33.918 8.02625 30.818 7.97425 30.43 8.01425M40.256 22.5343C40.3677 22.5901 40.4672 22.6678 40.5486 22.7625C40.63 22.8573 40.6916 22.9674 40.73 23.0863C40.766 23.2063 40.776 25.8162 40.766 31.6962L40.752 40.1323L39.266 37.8522L37.774 35.5723V29.4403C37.774 25.4743 37.792 23.2462 37.82 23.1382C37.8535 23.0134 37.9119 22.8966 37.9916 22.7949C38.0713 22.6932 38.1708 22.6086 38.284 22.5462C38.478 22.4462 38.548 22.4382 39.284 22.4382C39.978 22.4382 40.1 22.4482 40.256 22.5322"/>
</mask>
<path d="M30.428 8.01225C30.324 8.02225 29.996 8.05625 29.7 8.07825C22.884 8.69425 16.5 12.3723 12.452 18.0262C10.218 21.1305 8.76497 24.7273 8.216 28.5122C8.024 29.8322 8 30.2202 8 32.0082C8 33.7962 8.024 34.1862 8.216 35.5042C9.52 44.5182 15.936 52.0903 24.634 54.8963C26.192 55.3983 27.834 55.7403 29.7 55.9483C30.428 56.0283 33.572 56.0283 34.3 55.9483C37.522 55.5903 40.254 54.7923 42.946 53.4183C43.36 53.2083 43.44 53.1503 43.384 53.1043C42.0672 51.3677 40.7638 49.6209 39.474 47.8643L35.636 42.6783L30.828 35.5602C29.2282 33.1795 27.6135 30.8088 25.984 28.4482C25.966 28.4422 25.948 31.6043 25.938 35.4683C25.924 42.2283 25.918 42.5003 25.834 42.6603C25.7515 42.8466 25.6055 42.9975 25.422 43.0863C25.272 43.1623 25.142 43.1763 24.432 43.1763H23.62L23.404 43.0403C23.2703 42.9559 23.1619 42.837 23.09 42.6963L22.99 42.4863L23 33.0782L23.014 23.6663L23.16 23.4823C23.2569 23.3658 23.375 23.2688 23.508 23.1962C23.7 23.1022 23.774 23.0942 24.588 23.0942C25.544 23.0942 25.704 23.1303 25.952 23.4023C26.022 23.4783 28.626 27.4022 31.742 32.1262L41.21 46.4703L45.01 52.2263L45.204 52.1003C47.0331 50.8848 48.6911 49.4298 50.134 47.7743C53.158 44.3126 55.1197 40.0525 55.784 35.5042C55.976 34.1842 56 33.7962 56 32.0082C56 30.2202 55.976 29.8322 55.784 28.5122C54.48 19.5002 48.064 11.9262 39.366 9.12025C37.7404 8.60339 36.0664 8.25292 34.37 8.07425C33.918 8.02625 30.818 7.97425 30.43 8.01425M40.256 22.5343C40.3677 22.5901 40.4672 22.6678 40.5486 22.7625C40.63 22.8573 40.6916 22.9674 40.73 23.0863C40.766 23.2063 40.776 25.8162 40.766 31.6962L40.752 40.1323L39.266 37.8522L37.774 35.5723V29.4403C37.774 25.4743 37.792 23.2462 37.82 23.1382C37.8535 23.0134 37.9119 22.8966 37.9916 22.7949C38.0713 22.6932 38.1708 22.6086 38.284 22.5462C38.478 22.4462 38.548 22.4382 39.284 22.4382C39.978 22.4382 40.1 22.4482 40.256 22.5322"/>
<path d="M29.7 8.07825L29.6259 7.081L29.6179 7.08159L29.61 7.08231L29.7 8.07825ZM12.452 18.0262L13.2637 18.6104L13.2651 18.6084L12.452 18.0262ZM8.216 28.5122L9.20559 28.6562L9.20564 28.6558L8.216 28.5122ZM8.216 35.5042L9.2057 35.3611L9.20556 35.3601L8.216 35.5042ZM24.634 54.8963L24.327 55.848L24.3273 55.8481L24.634 54.8963ZM29.7 55.9483L29.5892 56.9421L29.5908 56.9423L29.7 55.9483ZM34.3 55.9483L34.4092 56.9423L34.4104 56.9421L34.3 55.9483ZM42.946 53.4183L42.4936 52.5264L42.4914 52.5276L42.946 53.4183ZM43.384 53.1043L42.5872 53.7085L42.6583 53.8023L42.7493 53.877L43.384 53.1043ZM39.474 47.8643L40.2801 47.2724L40.2778 47.2694L39.474 47.8643ZM35.636 42.6783L34.8073 43.238L34.8194 43.2558L34.8322 43.2731L35.636 42.6783ZM30.828 35.5602L29.998 36.118L29.9993 36.12L30.828 35.5602ZM25.984 28.4482L26.807 27.8801L26.6172 27.6052L26.3002 27.4996L25.984 28.4482ZM25.938 35.4683L24.938 35.4657L24.938 35.4662L25.938 35.4683ZM25.834 42.6603L24.9486 42.1954L24.9331 42.2249L24.9197 42.2553L25.834 42.6603ZM25.422 43.0863L24.9867 42.186L24.9783 42.19L24.97 42.1942L25.422 43.0863ZM23.62 43.1763L23.0872 44.0225L23.3314 44.1763H23.62V43.1763ZM23.404 43.0403L22.8702 43.8858L22.8712 43.8865L23.404 43.0403ZM23.09 42.6963L22.1871 43.1262L22.1931 43.1386L22.1993 43.1509L23.09 42.6963ZM22.99 42.4863L21.99 42.4852L21.9898 42.7117L22.0871 42.9162L22.99 42.4863ZM23 33.0782L22 33.0768V33.0772L23 33.0782ZM23.014 23.6663L22.2306 23.0447L22.0145 23.3171L22.014 23.6648L23.014 23.6663ZM23.16 23.4823L22.3914 22.8426L22.3839 22.8515L22.3766 22.8607L23.16 23.4823ZM23.508 23.1962L23.0683 22.2981L23.0486 22.3077L23.0294 22.3182L23.508 23.1962ZM25.952 23.4023L25.213 24.076L25.2165 24.0797L25.952 23.4023ZM31.742 32.1262L30.9072 32.6769L30.9074 32.6771L31.742 32.1262ZM41.21 46.4703L40.3754 47.0211L40.3755 47.0212L41.21 46.4703ZM45.01 52.2263L44.1755 52.7772L44.7223 53.6055L45.5547 53.0649L45.01 52.2263ZM45.204 52.1003L45.7487 52.9389L45.7575 52.9331L45.204 52.1003ZM50.134 47.7743L49.3809 47.1163L49.3801 47.1172L50.134 47.7743ZM55.784 35.5042L56.7735 35.6488L56.7736 35.6482L55.784 35.5042ZM55.784 28.5122L54.7943 28.6555L54.7944 28.6562L55.784 28.5122ZM39.366 9.12025L39.673 8.16854L39.669 8.16726L39.366 9.12025ZM34.37 8.07425L34.2644 9.06866L34.2653 9.06875L34.37 8.07425ZM40.73 23.0863L41.6878 22.7989L41.6849 22.789L41.6817 22.7792L40.73 23.0863ZM40.766 31.6962L39.766 31.6945V31.6946L40.766 31.6962ZM40.752 40.1323L39.9142 40.6783L41.7464 43.4895L41.752 40.1339L40.752 40.1323ZM39.266 37.8522L40.1038 37.3062L40.1028 37.3047L39.266 37.8522ZM37.774 35.5723H36.774V35.8704L36.9372 36.1198L37.774 35.5723ZM37.82 23.1382L36.8542 22.879L36.852 22.8873L37.82 23.1382ZM38.284 22.5462L37.8258 21.6574L37.8136 21.6637L37.8015 21.6703L38.284 22.5462ZM30.428 8.01225L30.3323 7.01684C30.2176 7.02787 29.9076 7.06006 29.6259 7.081L29.7 8.07825L29.7741 9.0755C30.0844 9.05244 30.4304 9.01663 30.5237 9.00766L30.428 8.01225ZM29.7 8.07825L29.61 7.08231C22.4995 7.72492 15.8535 11.5574 11.6389 17.4441L12.452 18.0262L13.2651 18.6084C17.1465 13.1871 23.2685 9.66358 29.79 9.07419L29.7 8.07825ZM12.452 18.0262L11.6403 17.4421C9.31246 20.6768 7.79839 24.4248 7.22636 28.3687L8.216 28.5122L9.20564 28.6558C9.73155 25.0299 11.1235 21.5842 13.2637 18.6104L12.452 18.0262ZM8.216 28.5122L7.22641 28.3683C7.02561 29.7489 7 30.1871 7 32.0082H8H9C9 30.2534 9.02239 29.9156 9.20559 28.6562L8.216 28.5122ZM8 32.0082H7C7 33.8292 7.02559 34.2696 7.22644 35.6484L8.216 35.5042L9.20556 35.3601C9.02241 34.1029 9 33.7633 9 32.0082H8ZM8.216 35.5042L7.2263 35.6474C8.58527 45.0414 15.268 52.9255 24.327 55.848L24.634 54.8963L24.941 53.9445C16.604 51.255 10.4547 43.9951 9.2057 35.3611L8.216 35.5042ZM24.634 54.8963L24.3273 55.8481C25.957 56.3732 27.6656 56.7277 29.5892 56.9421L29.7 55.9483L29.8108 54.9544C28.0024 54.7528 26.427 54.4233 24.9407 53.9444L24.634 54.8963ZM29.7 55.9483L29.5908 56.9423C30.0201 56.9894 31.047 57.0083 32 57.0083C32.953 57.0083 33.9799 56.9894 34.4092 56.9423L34.3 55.9483L34.1908 54.9542C33.8921 54.9871 32.983 55.0083 32 55.0083C31.017 55.0083 30.1079 54.9871 29.8092 54.9542L29.7 55.9483ZM34.3 55.9483L34.4104 56.9421C37.7432 56.5718 40.5931 55.7419 43.4006 54.3089L42.946 53.4183L42.4914 52.5276C39.9149 53.8426 37.3008 54.6087 34.1896 54.9544L34.3 55.9483ZM42.946 53.4183L43.3984 54.3101C43.5854 54.2152 43.7846 54.1125 43.9246 54.012C43.9564 53.9891 44.201 53.8257 44.3255 53.5156C44.4091 53.3072 44.4349 53.0428 44.3363 52.7759C44.2493 52.5404 44.1 52.3983 44.0187 52.3315L43.384 53.1043L42.7493 53.877C42.682 53.8217 42.5424 53.6914 42.4602 53.4688C42.3663 53.2146 42.3918 52.964 42.4693 52.7708C42.5354 52.6062 42.6293 52.5046 42.6681 52.4654C42.7125 52.4204 42.7486 52.3942 42.7579 52.3875C42.7684 52.38 42.7206 52.4113 42.4936 52.5264L42.946 53.4183ZM43.384 53.1043L44.1808 52.5C42.8672 50.7676 41.5669 49.025 40.2801 47.2724L39.474 47.8643L38.6679 48.4561C39.9608 50.2169 41.2673 51.9678 42.5872 53.7085L43.384 53.1043ZM39.474 47.8643L40.2778 47.2694L36.4398 42.0834L35.636 42.6783L34.8322 43.2731L38.6702 48.4591L39.474 47.8643ZM35.636 42.6783L36.4647 42.1185L31.6567 35.0005L30.828 35.5602L29.9993 36.12L34.8073 43.238L35.636 42.6783ZM30.828 35.5602L31.658 35.0025C30.0559 32.6183 28.4389 30.2441 26.807 27.8801L25.984 28.4482L25.161 29.0164C26.7882 31.3734 28.4005 33.7407 29.998 36.118L30.828 35.5602ZM25.984 28.4482L26.3002 27.4996C25.7987 27.3324 25.4148 27.5973 25.2631 27.7551C25.133 27.8903 25.0755 28.0278 25.06 28.0652C25.0197 28.1624 25.0044 28.2445 25.0016 28.2591C24.9916 28.3107 24.9877 28.353 24.9868 28.3624C24.9839 28.3929 24.9825 28.4213 24.9817 28.4365C24.98 28.4723 24.9787 28.5174 24.9776 28.5658C24.9752 28.6652 24.9729 28.8081 24.9707 28.9869C24.9663 29.346 24.962 29.8638 24.958 30.5007C24.95 31.7752 24.943 33.533 24.938 35.4657L25.938 35.4683L26.938 35.4708C26.943 33.5395 26.95 31.7843 26.958 30.5133C26.962 29.8774 26.9662 29.3644 26.9705 29.0115C26.9727 28.8344 26.9749 28.701 26.977 28.6136C26.9781 28.5686 26.979 28.5425 26.9795 28.5308C26.9799 28.5222 26.9796 28.5327 26.9778 28.5514C26.9775 28.5549 26.9742 28.5928 26.9647 28.6415C26.9622 28.6546 26.9472 28.7356 26.9071 28.8322C26.8917 28.8692 26.8344 29.0065 26.7045 29.1416C26.5529 29.2992 26.1692 29.5641 25.6678 29.3969L25.984 28.4482ZM25.938 35.4683L24.938 35.4662C24.931 38.85 24.926 40.5996 24.9124 41.5245C24.9054 41.9938 24.8965 42.2223 24.8871 42.3379C24.8781 42.4467 24.8759 42.3339 24.9486 42.1954L25.834 42.6603L26.7194 43.1251C26.8341 42.9066 26.8641 42.6998 26.8804 42.5013C26.8961 42.3097 26.9053 42.0177 26.9121 41.554C26.926 40.6129 26.931 38.8465 26.938 35.4703L25.938 35.4683ZM25.834 42.6603L24.9197 42.2553C24.9331 42.225 24.9569 42.2004 24.9867 42.186L25.422 43.0863L25.8573 43.9865C26.2541 43.7947 26.5699 43.4682 26.7483 43.0652L25.834 42.6603ZM25.422 43.0863L24.97 42.1942C24.9794 42.1895 25.0076 42.1766 25.0428 42.167C25.0709 42.1595 25.0787 42.1609 25.0445 42.164C24.9592 42.172 24.7974 42.1763 24.432 42.1763V43.1763V44.1763C25.0475 44.1763 25.4624 44.1868 25.874 43.9783L25.422 43.0863ZM24.432 43.1763V42.1763H23.62V43.1763V44.1763H24.432V43.1763ZM23.62 43.1763L24.1528 42.33L23.9368 42.194L23.404 43.0403L22.8712 43.8865L23.0872 44.0225L23.62 43.1763ZM23.404 43.0403L23.9378 42.1947C23.9561 42.2062 23.9709 42.2224 23.9807 42.2416L23.09 42.6963L22.1993 43.1509C22.3529 43.4517 22.5846 43.7056 22.8702 43.8858L23.404 43.0403ZM23.09 42.6963L23.9929 42.2663L23.8929 42.0563L22.99 42.4863L22.0871 42.9162L22.1871 43.1262L23.09 42.6963ZM22.99 42.4863L23.99 42.4873L24 33.0793L23 33.0782L22 33.0772L21.99 42.4852L22.99 42.4863ZM23 33.0782L24 33.0797L24.014 23.6677L23.014 23.6663L22.014 23.6648L22 33.0768L23 33.0782ZM23.014 23.6663L23.7974 24.2878L23.9434 24.1038L23.16 23.4823L22.3766 22.8607L22.2306 23.0447L23.014 23.6663ZM23.16 23.4823L23.9286 24.1219C23.9448 24.1025 23.9645 24.0863 23.9866 24.0743L23.508 23.1962L23.0294 22.3182C22.7855 22.4512 22.569 22.6291 22.3914 22.8426L23.16 23.4823ZM23.508 23.1962L23.9477 24.0944C23.9791 24.079 23.962 24.0891 23.9301 24.0986C23.8971 24.1085 23.882 24.1081 23.9096 24.1055C23.9429 24.1023 24.0039 24.0989 24.1207 24.0968C24.2351 24.0948 24.3841 24.0942 24.588 24.0942V23.0942V22.0942C24.2013 22.0942 23.9228 22.0952 23.7199 22.1145C23.4354 22.1416 23.2524 22.208 23.0683 22.2981L23.508 23.1962ZM24.588 23.0942V24.0942C24.8248 24.0942 24.993 24.0966 25.1199 24.1029C25.2494 24.1093 25.3015 24.1186 25.3153 24.1217C25.3164 24.122 25.2772 24.1122 25.2283 24.0808C25.1879 24.0548 25.1768 24.0363 25.213 24.076L25.952 23.4023L26.691 22.7285C26.6032 22.6322 26.4791 22.5072 26.3091 22.398C26.1306 22.2833 25.9451 22.2135 25.7557 22.1708C25.4348 22.0984 25.0353 22.0942 24.588 22.0942V23.0942ZM25.952 23.4023L25.2165 24.0797C25.1696 24.0288 25.1364 23.9799 25.1552 24.006C25.1571 24.0086 25.1627 24.0165 25.1732 24.0316C25.1936 24.061 25.2242 24.1057 25.2656 24.1666C25.3477 24.2877 25.4659 24.4635 25.6169 24.6892C25.9185 25.14 26.3472 25.7841 26.8715 26.5742C27.9201 28.1542 29.3496 30.3154 30.9072 32.6769L31.742 32.1262L32.5768 31.5756C31.0184 29.2131 29.5879 27.0503 28.538 25.4683C28.0131 24.6774 27.5829 24.031 27.2792 23.5771C27.1275 23.3503 27.0064 23.1703 26.9206 23.0437C26.8779 22.9809 26.8424 22.9288 26.8155 22.8901C26.8023 22.8712 26.7889 22.8521 26.7766 22.8351C26.7707 22.8269 26.7624 22.8155 26.7531 22.8033C26.7506 22.8 26.7238 22.7641 26.6875 22.7248L25.952 23.4023ZM31.742 32.1262L30.9074 32.6771L40.3754 47.0211L41.21 46.4703L42.0446 45.9194L32.5766 31.5754L31.742 32.1262ZM41.21 46.4703L40.3755 47.0212L44.1755 52.7772L45.01 52.2263L45.8445 51.6753L42.0445 45.9193L41.21 46.4703ZM45.01 52.2263L45.5547 53.0649L45.7487 52.9389L45.204 52.1003L44.6593 51.2616L44.4653 51.3876L45.01 52.2263ZM45.204 52.1003L45.7575 52.9331C47.6609 51.6682 49.3864 50.1542 50.8879 48.4313L50.134 47.7743L49.3801 47.1172C47.9959 48.7055 46.4052 50.1013 44.6505 51.2674L45.204 52.1003ZM50.134 47.7743L50.8871 48.4322C54.0377 44.8257 56.0814 40.3873 56.7735 35.6488L55.784 35.5042L54.7945 35.3597C54.158 39.7176 52.2784 43.7996 49.3809 47.1163L50.134 47.7743ZM55.784 35.5042L56.7736 35.6482C56.9744 34.2676 57 33.8294 57 32.0082H56H55C55 33.7631 54.9776 34.1009 54.7944 35.3603L55.784 35.5042ZM56 32.0082H57C57 30.1871 56.9744 29.7489 56.7736 28.3683L55.784 28.5122L54.7944 28.6562C54.9776 29.9156 55 30.2534 55 32.0082H56ZM55.784 28.5122L56.7737 28.369C55.4147 18.9772 48.7321 11.091 39.673 8.16855L39.366 9.12025L39.059 10.072C47.3959 12.7615 53.5453 20.0233 54.7943 28.6555L55.784 28.5122ZM39.366 9.12025L39.669 8.16726C37.9788 7.62989 36.2385 7.26552 34.4747 7.07975L34.37 8.07425L34.2653 9.06875C35.8944 9.24033 37.5019 9.57689 39.063 10.0732L39.366 9.12025ZM34.37 8.07425L34.4756 7.07984C34.1931 7.04984 33.2478 7.02499 32.3919 7.01138C31.9485 7.00432 31.5049 7 31.1458 7C30.8164 7 30.4881 7.00297 30.3275 7.01952L30.43 8.01425L30.5325 9.00898C30.5254 9.00971 30.5356 9.00854 30.5741 9.00697C30.6084 9.00557 30.6539 9.00427 30.711 9.0032C30.825 9.00105 30.9728 9 31.1458 9C31.4911 9 31.9235 9.00418 32.3601 9.01112C33.2642 9.02551 34.0949 9.05066 34.2644 9.06866L34.37 8.07425ZM40.256 22.5343L39.8086 23.4286C39.8014 23.425 39.7951 23.42 39.7899 23.414L40.5486 22.7625L41.3072 22.1111C41.1393 21.9155 40.934 21.7553 40.7034 21.6399L40.256 22.5343ZM40.5486 22.7625L39.7899 23.414C39.7847 23.4079 39.7808 23.4009 39.7783 23.3933L40.73 23.0863L41.6817 22.7792C41.6025 22.5338 41.4752 22.3067 41.3072 22.1111L40.5486 22.7625ZM40.73 23.0863L39.7722 23.3736C39.737 23.2565 39.735 23.1565 39.7393 23.2134C39.74 23.223 39.7414 23.2463 39.7431 23.2887C39.7463 23.3716 39.7495 23.4975 39.7524 23.6718C39.7581 24.0189 39.7624 24.5351 39.7653 25.2353C39.771 26.6347 39.771 28.7547 39.766 31.6945L40.766 31.6962L41.766 31.698C41.771 28.7578 41.771 26.6328 41.7652 25.2271C41.7624 24.5249 41.758 23.9986 41.7521 23.6388C41.7491 23.4597 41.7457 23.316 41.7415 23.2103C41.7395 23.1583 41.737 23.1076 41.7336 23.0629C41.732 23.041 41.7295 23.0123 41.7257 22.9814C41.7239 22.9673 41.7149 22.8892 41.6878 22.7989L40.73 23.0863ZM40.766 31.6962L39.766 31.6946L39.752 40.1306L40.752 40.1323L41.752 40.1339L41.766 31.6979L40.766 31.6962ZM40.752 40.1323L41.5898 39.5862L40.1038 37.3062L39.266 37.8522L38.4282 38.3983L39.9142 40.6783L40.752 40.1323ZM39.266 37.8522L40.1028 37.3047L38.6108 35.0247L37.774 35.5723L36.9372 36.1198L38.4292 38.3998L39.266 37.8522ZM37.774 35.5723H38.774V29.4403H37.774H36.774V35.5723H37.774ZM37.774 29.4403H38.774C38.774 27.4583 38.7785 25.9126 38.7865 24.85C38.7905 24.3182 38.7953 23.9104 38.8008 23.6304C38.8036 23.4897 38.8064 23.3863 38.8092 23.3175C38.8106 23.2823 38.8117 23.2629 38.8123 23.255C38.8156 23.2088 38.8135 23.2907 38.788 23.3892L37.82 23.1382L36.852 22.8873C36.823 22.9993 36.8175 23.1113 36.8174 23.1115C36.8147 23.15 36.8125 23.1934 36.8108 23.2373C36.8072 23.3265 36.8041 23.4458 36.8012 23.5911C36.7954 23.8832 36.7905 24.3006 36.7865 24.835C36.7785 25.9049 36.774 27.4562 36.774 29.4403H37.774ZM37.82 23.1382L38.7858 23.3975C38.7844 23.4027 38.782 23.4076 38.7787 23.4118L37.9916 22.7949L37.2045 22.178C37.0418 22.3857 36.9226 22.6241 36.8542 22.879L37.82 23.1382ZM37.9916 22.7949L38.7787 23.4118C38.7753 23.416 38.7712 23.4196 38.7665 23.4222L38.284 22.5462L37.8015 21.6703C37.5704 21.7977 37.3673 21.9703 37.2045 22.178L37.9916 22.7949ZM38.284 22.5462L38.7422 23.4351C38.7763 23.4175 38.7607 23.4274 38.7291 23.4378C38.6934 23.4494 38.6726 23.4506 38.6885 23.4489C38.7117 23.4464 38.7611 23.443 38.865 23.4409C38.9666 23.4388 39.0994 23.4382 39.284 23.4382V22.4382V21.4382C38.9387 21.4382 38.6732 21.4389 38.473 21.4606C38.1869 21.4916 38.0017 21.5668 37.8258 21.6574L38.284 22.5462ZM39.284 22.4382V23.4382C39.4569 23.4382 39.5859 23.4389 39.6865 23.4409C39.789 23.443 39.8454 23.4462 39.8771 23.4493C39.9063 23.452 39.8927 23.4527 39.8589 23.443C39.8185 23.4314 39.7887 23.4164 39.7819 23.4127L40.256 22.5322L40.7301 21.6518C40.3004 21.4204 39.872 21.4382 39.284 21.4382V22.4382Z" fill="#10B6BC" mask="url(#path-3-inside-1_137_28)"/>
</g>
</g>
<defs>
<clipPath id="clip0_137_28">
<rect width="48" height="48" fill="white" transform="translate(8 8)"/>
</clipPath>
</defs>
</svg>
