<svg xmlns="http://www.w3.org/2000/svg" fill="none" viewBox="0 0 22 23.96">
<path d="M11 23.9568C10.658 23.9568 10.34 23.8678 10.043 23.7138L7.014 21.9758C6.559 21.7338 6.787 21.6458 6.924 21.6018C7.538 21.4038 7.652 21.3598 8.29 21.0068C8.358 20.9628 8.45 20.9848 8.518 21.0288L10.841 22.3718C10.931 22.4158 11.046 22.4158 11.114 22.3718L20.201 17.2878C20.291 17.2438 20.337 17.1558 20.337 17.0458V6.89984C20.337 6.78984 20.292 6.70184 20.201 6.65784L11.114 1.59684C11.023 1.55284 10.909 1.55284 10.841 1.59684L1.754 6.65784C1.663 6.70184 1.617 6.81184 1.617 6.89984V17.0458C1.617 17.1338 1.663 17.2438 1.754 17.2878L4.236 18.6748C5.58 19.3348 6.422 18.5648 6.422 17.7948V7.78084C6.422 7.64884 6.536 7.51684 6.696 7.51684H7.857C7.994 7.51684 8.13 7.62684 8.13 7.78084V17.7938C8.13 19.5328 7.151 20.5448 5.443 20.5448C4.919 20.5448 4.509 20.5448 3.348 19.9948L0.957 18.6748C0.668884 18.5164 0.428283 18.2839 0.260047 18.0014C0.0918107 17.7189 0.00203788 17.3966 0 17.0678V6.92184C0 6.26184 0.364 5.64584 0.957 5.31584L10.044 0.230841C10.3398 0.0791271 10.6675 0 11 0C11.3325 0 11.6602 0.0791271 11.956 0.230841L21.044 5.31484C21.636 5.64484 22 6.26084 22 6.92084V17.0668C22 17.7268 21.636 18.3428 21.044 18.6738L11.956 23.7568C11.6543 23.8876 11.3289 23.955 11 23.9548V23.9568ZM13.801 16.9798C9.816 16.9798 8.996 15.2198 8.996 13.7228C8.996 13.5908 9.11 13.4588 9.269 13.4588H10.453C10.59 13.4588 10.703 13.5468 10.703 13.6788C10.886 14.8448 11.41 15.4168 13.824 15.4168C15.737 15.4168 16.557 14.9988 16.557 14.0088C16.557 13.4368 16.329 13.0188 13.346 12.7328C10.863 12.4898 9.315 11.9628 9.315 10.0478C9.315 8.26484 10.863 7.20784 13.46 7.20784C16.375 7.20784 17.81 8.17684 17.992 10.2898C17.99 10.3614 17.9659 10.4305 17.923 10.4878C17.878 10.5318 17.81 10.5758 17.741 10.5758H16.557C16.4995 10.5744 16.444 10.5544 16.3989 10.5187C16.3538 10.4829 16.3215 10.4335 16.307 10.3778C16.033 9.16784 15.327 8.77084 13.46 8.77084C11.364 8.77084 11.114 9.47484 11.114 10.0028C11.114 10.6418 11.41 10.8398 14.234 11.1918C17.035 11.5438 18.356 12.0498 18.356 13.9418C18.333 15.8798 16.694 16.9798 13.801 16.9798Z" fill="#363636"/>
</svg>