<svg width="64" height="64" viewBox="0 0 64 64" xmlns="http://www.w3.org/2000/svg">
<circle cx="32" cy="32" r="31.5" stroke="#10B6BC"/>
<path d="M32 54C31.3782 54 30.8 53.8365 30.26 53.5537L24.7527 50.3615C23.9255 49.9171 24.34 49.7554 24.5891 49.6746C25.7055 49.3109 25.9127 49.2301 27.0727 48.5818C27.1964 48.501 27.3636 48.5414 27.4873 48.6222L31.7109 51.0889C31.8745 51.1697 32.0836 51.1697 32.2073 51.0889L48.7291 41.7512C48.8927 41.6703 48.9764 41.5087 48.9764 41.3067V22.6717C48.9764 22.4697 48.8945 22.308 48.7291 22.2272L32.2073 12.9318C32.0418 12.8509 31.8345 12.8509 31.7109 12.9318L15.1891 22.2272C15.0236 22.308 14.94 22.5101 14.94 22.6717V41.3067C14.94 41.4683 15.0236 41.6703 15.1891 41.7512L19.7018 44.2986C22.1455 45.5108 23.6764 44.0966 23.6764 42.6824V24.2898C23.6764 24.0474 23.8836 23.8049 24.1745 23.8049H26.2855C26.5345 23.8049 26.7818 24.007 26.7818 24.2898V42.6805C26.7818 45.8745 25.0018 47.7332 21.8964 47.7332C20.9436 47.7332 20.1982 47.7332 18.0873 46.7231L13.74 44.2986C13.2165 44.0072 12.7794 43.5801 12.4736 43.0614C12.1677 42.5426 12.0043 41.9509 12 41.3471V22.7121C12 21.4999 12.6618 20.3685 13.74 19.7624L30.2618 10.4228C30.7999 10.1449 31.3956 10 32 10C32.6044 10 33.2001 10.1449 33.7382 10.4228L50.2618 19.7605C51.3382 20.3667 52 21.498 52 22.7103V41.3453C52 42.5575 51.3382 43.6889 50.2618 44.2968L33.74 53.6327C33.1908 53.8732 32.5986 53.9969 32 53.9963M37.0927 41.1818C29.8473 41.1818 28.3564 37.9492 28.3564 35.1997C28.3564 34.9573 28.5636 34.7148 28.8527 34.7148H31.0055C31.2545 34.7148 31.46 34.8765 31.46 35.1189C31.7927 37.2605 32.7455 38.311 37.1345 38.311C40.6127 38.311 42.1036 37.5433 42.1036 35.725C42.1036 34.6744 41.6891 33.9067 36.2655 33.3814C31.7509 32.9351 28.9364 31.9671 28.9364 28.4499C28.9364 25.1751 31.7509 23.2337 36.4727 23.2337C41.7727 23.2337 44.3818 25.0135 44.7127 28.8944C44.7087 29.0257 44.6649 29.1526 44.5873 29.258C44.5055 29.3389 44.3818 29.4197 44.2564 29.4197H42.1036C41.9991 29.4171 41.8982 29.3802 41.8162 29.3146C41.7341 29.249 41.6755 29.1582 41.6491 29.056C41.1509 26.8336 39.8673 26.1045 36.4727 26.1045C32.6618 26.1045 32.2073 27.3975 32.2073 28.3691C32.2073 29.5409 32.7455 29.9045 37.88 30.5511C42.9727 31.1976 45.3745 32.1269 45.3745 35.6019C45.3327 39.1614 42.3527 41.1818 37.0927 41.1818Z" fill="#10B6BC"/>
</svg>
