<svg width="64" height="64" viewBox="0 0 64 64" xmlns="http://www.w3.org/2000/svg">
<circle cx="32" cy="32" r="31.5" stroke="#10B6BC"/>
<path d="M51.9581 37.1515C51.9347 37.0791 51.9016 37.0102 51.8597 36.9465C51.618 36.4966 51.0385 36.365 50.1212 36.5518C47.2656 37.1327 46.1607 36.7739 45.7602 36.5177C48.0771 33.0189 49.9813 28.7924 51.0103 24.8495C51.4799 23.0557 52.388 18.8309 51.2209 16.7689C51.1467 16.6273 51.06 16.4924 50.962 16.3658C48.7348 13.5538 45.4667 12.0419 41.5131 12.0009C38.9321 11.9735 36.7309 12.592 36.1335 12.8192C35.8378 12.7648 35.5408 12.7181 35.2427 12.6791C34.4949 12.5452 33.7373 12.4727 32.9776 12.4621C30.9369 12.4297 29.1742 12.9131 27.7119 13.8972C26.2341 13.3488 19.4474 11.0869 15.2469 14.0321C12.8972 15.6773 11.8165 18.6157 12.0254 22.7687C12.0962 24.1662 12.9007 28.4644 14.1714 32.5816C14.9655 35.1555 15.7902 37.1953 16.6454 38.7009C17.6007 40.4013 18.587 41.4207 19.6045 41.7589C20.3779 42.0118 21.5606 42.0032 22.8122 40.5135C23.898 39.2284 25.0177 37.9718 26.1702 36.7449C26.9212 37.1463 27.7343 37.3633 28.5699 37.3889V37.3958C28.4247 37.5669 28.2825 37.7406 28.1435 37.9168C27.5582 38.6514 27.4357 38.8052 25.5538 39.1895C25.0186 39.2989 23.596 39.5876 23.5753 40.575C23.5723 40.7723 23.6268 40.9663 23.7324 41.1337C24.1243 41.8563 25.3242 42.1758 25.4848 42.2151C27.7896 42.7839 29.8095 42.3722 31.3064 41.0551C31.277 44.8664 31.4393 48.6026 31.902 49.7472C32.2835 50.692 33.2175 53 36.1663 53C36.5979 53.0011 37.075 52.9476 37.5975 52.8394C40.6741 52.1868 42.0103 50.8406 42.5265 47.8749C42.7855 46.3886 43.2206 42.9633 43.4571 40.8689C43.4864 40.7493 43.5192 40.6639 43.5555 40.6365C43.5555 40.6365 43.6764 40.5545 44.2927 40.6878L44.3687 40.6997L44.8072 40.7373L44.8331 40.739C46.2954 40.8057 48.1323 40.4964 49.2027 40.0044C50.3145 39.4919 52.3224 38.2397 51.9581 37.1515ZM15.3747 32.2877C14.0902 28.1279 13.3409 23.9424 13.2822 22.7704C13.0941 19.0599 14.0022 16.4785 15.979 15.0947C19.1504 12.8756 24.335 14.1722 26.5241 14.8726L26.5068 14.8897C23.0142 18.3782 23.0971 24.3438 23.1092 24.7094C23.1092 24.8495 23.1195 25.0494 23.1368 25.3244C23.1955 26.3255 23.3095 28.1945 23.009 30.3094C22.7328 32.2741 23.344 34.1977 24.6889 35.5866C24.827 35.7301 24.972 35.8651 25.1239 35.9915C24.5249 36.6253 23.2249 38.0296 21.8385 39.6781C20.8579 40.8432 20.1811 40.6194 19.9601 40.546C19.2834 40.3239 18.5565 39.5432 17.8211 38.2875C16.9924 36.8542 16.1585 34.8161 15.3782 32.2877M25.7489 40.9799C25.4866 40.9152 25.2353 40.8127 25.0031 40.6758C25.1568 40.6092 25.4123 40.5221 25.837 40.4366C28.0537 39.9839 28.3956 39.6662 29.1431 38.7283C29.3451 38.4686 29.5564 38.2161 29.7767 37.9715C29.833 37.9061 29.8764 37.8307 29.9045 37.7494C30.198 37.4914 30.3741 37.5615 30.6572 37.6776C30.9265 37.7887 31.189 38.1218 31.296 38.4891C31.3478 38.6634 31.403 38.9931 31.2183 39.2493C29.6576 41.4121 27.3821 41.3848 25.7489 40.9799ZM29.3641 34.1669L29.2743 34.4061C29.0447 35.016 28.8306 35.5832 28.6977 36.1213C27.5462 36.1179 26.424 35.6293 25.5728 34.7495C24.4886 33.6305 23.9966 32.0742 24.221 30.4786C24.537 28.244 24.4213 26.2982 24.3591 25.2527L24.3367 24.8768C24.8477 24.4292 27.213 23.1753 28.8997 23.558C29.6697 23.7322 30.1393 24.2516 30.3326 25.1433C31.3426 29.7628 30.4673 31.6864 29.7629 33.2342C29.6202 33.5407 29.4878 33.8518 29.3658 34.1669M42.0794 41.9776C42.0518 42.2805 42.0161 42.6199 41.9723 42.9958L41.7203 43.744C41.7014 43.8038 41.691 43.8659 41.6892 43.9286C41.6789 44.74 41.596 45.0373 41.4907 45.4148C41.3193 46.0034 41.215 46.6091 41.1799 47.2206C40.99 49.6362 39.6641 51.0251 37.0071 51.5872C34.3915 52.1424 33.9271 50.7398 33.5197 49.5012C33.477 49.3712 33.4321 49.2419 33.385 49.1134C33.0138 48.1123 33.057 46.7012 33.1139 44.7486C33.1416 43.7902 33.0708 41.501 32.5442 40.2282C32.5511 39.7271 32.5621 39.2192 32.577 38.7044C32.5772 38.639 32.5679 38.574 32.5494 38.5113C32.5305 38.3916 32.5051 38.273 32.4734 38.156C32.2628 37.4248 31.7483 36.8132 31.1268 36.5587C30.8817 36.4579 30.431 36.2734 29.8889 36.41C30.0046 35.9385 30.2049 35.4072 30.4224 34.8298L30.5139 34.5872C30.6175 34.3139 30.7453 34.032 30.8817 33.733C31.6171 32.1135 32.6254 29.896 31.5308 24.8871C31.1216 23.0113 29.7526 22.0956 27.6774 22.3075C26.4343 22.4356 25.2949 22.9327 24.7269 23.2163C24.613 23.2735 24.5002 23.3327 24.3885 23.394C24.5473 21.5045 25.1464 17.9716 27.3856 15.7371C27.5517 15.5712 27.7263 15.4138 27.9087 15.2656C27.9995 15.2485 28.0851 15.2111 28.159 15.1562C29.4573 14.1825 31.0854 13.7041 32.9965 13.7332C33.7055 13.7446 34.3812 13.7907 35.0234 13.8715C38.3727 14.478 40.624 16.3435 41.9913 17.9426C43.3967 19.586 44.158 21.2414 44.4619 22.1349C42.1778 21.906 40.624 22.3519 39.835 23.4674C38.1224 25.8899 40.7742 30.5947 42.0483 32.8566C42.2814 33.27 42.4834 33.6288 42.5473 33.7791C42.9616 34.7751 43.4985 35.4397 43.8904 35.9249C44.0113 36.0735 44.1287 36.217 44.2167 36.3434C43.5262 36.5416 42.2831 36.9977 42.3953 39.2767C42.3525 39.7413 42.3041 40.2055 42.2503 40.669C42.1709 41.0243 42.1312 41.4548 42.0794 41.9776ZM43.6142 39.2083C43.5451 37.787 44.0803 37.6383 44.6449 37.4829L44.878 37.4128C44.9499 37.4778 45.0273 37.5367 45.1093 37.5888C46.0934 38.2311 47.8423 38.308 50.3007 37.8177C49.952 38.1201 49.4047 38.5011 48.6554 38.8444C47.9476 39.169 46.7632 39.4133 45.6393 39.4663C44.3963 39.5244 43.7644 39.3296 43.6142 39.2083ZM44.5983 23.3701C44.5794 23.9437 44.5188 24.5152 44.417 25.0801C44.322 25.6917 44.2236 26.3238 44.1977 27.0909C44.1736 27.8357 44.2668 28.6113 44.3583 29.363C44.543 30.8783 44.7312 32.4381 44.0009 33.9773C43.8809 33.764 43.7726 33.5444 43.6764 33.3196C43.5049 32.9603 43.3177 32.6086 43.1153 32.2655C42.0518 30.3795 39.564 25.9617 40.8363 24.161C41.4924 23.2334 43.1532 23.1941 44.5983 23.3701ZM44.9919 35.3508L44.8452 35.168L44.7847 35.0929C46.0381 33.0428 45.793 31.015 45.5737 29.2178C45.4839 28.4798 45.4011 27.7828 45.4218 27.1302C45.4442 26.4349 45.5357 25.8404 45.6255 25.2646C45.736 24.5557 45.85 23.8228 45.8172 22.9583C45.8415 22.8519 45.8485 22.7424 45.8379 22.6338C45.7584 21.8035 44.802 19.3229 42.8511 17.0764C41.5797 15.5936 39.9958 14.4041 38.2104 13.5914C39.3594 13.3596 40.5306 13.253 41.703 13.2736C45.2457 13.3522 48.0477 14.6642 50.0314 17.1738C50.0734 17.2284 50.112 17.2855 50.1471 17.3447C51.3953 19.6612 49.6723 28.0647 44.9919 35.3508ZM29.7698 24.9025C29.7267 25.21 29.2346 25.6251 28.6977 25.6251L28.5579 25.6149C28.2075 25.5535 27.8945 25.3607 27.6843 25.0767C27.6049 24.9742 27.4771 24.7726 27.5013 24.5898C27.5089 24.5388 27.5271 24.4898 27.5548 24.446C27.5824 24.4022 27.6188 24.3645 27.6618 24.3353C27.8655 24.1832 28.2695 24.1269 28.715 24.1884C29.2605 24.2635 29.8233 24.5181 29.7681 24.9025M43.4588 24.2003C43.4778 24.337 43.3742 24.542 43.1947 24.7299C43.0089 24.9305 42.7612 25.0645 42.4903 25.1109L42.3608 25.1194C41.8549 25.1194 41.4268 24.7197 41.394 24.4856C41.3526 24.1832 41.8498 23.956 42.3608 23.8843C42.8753 23.8125 43.4174 23.8997 43.4588 24.2003Z" fill="#10B6BC"/>
</svg>
