<svg width="47" height="46" viewBox="0 0 47 46" fill="none" xmlns="http://www.w3.org/2000/svg">
<path d="M41.6086 46L27.7179 32.0277L33.0459 26.6685L46.9365 40.6408L41.6086 46ZM6.59649 46L1.26856 40.6408L18.7746 23.0319L14.4615 18.6935L12.6856 20.4799L9.45074 17.2261V22.4577L7.67476 24.2441L0 16.5243L1.77598 14.7379H6.97705L3.80567 11.5479L12.8124 2.48821C13.6581 1.63754 14.5672 1.02081 15.5398 0.638005C16.5124 0.255204 17.5061 0.063803 18.5209 0.063803C19.5357 0.063803 20.5294 0.255204 21.502 0.638005C22.4746 1.02081 23.3837 1.63754 24.2294 2.48821L18.394 8.35784L21.5654 11.5479L19.7895 13.3343L24.1025 17.6727L29.811 11.9307C29.6419 11.4628 29.5049 10.9736 29.4 10.4632C29.2952 9.95284 29.2419 9.44244 29.2402 8.93204C29.2402 6.42256 30.0969 4.3061 31.8103 2.58264C33.5237 0.85918 35.6269 -0.00169882 38.1201 2.51678e-06C38.7544 2.51678e-06 39.3573 0.0638029 39.929 0.191403C40.5007 0.319004 41.0817 0.510405 41.672 0.765606L35.3927 7.08183L39.9595 11.6755L46.2388 5.35922C46.5348 5.95469 46.7361 6.5391 46.8427 7.11246C46.9492 7.68581 47.0017 8.29234 47 8.93204C47 11.4415 46.1441 13.558 44.4324 15.2814C42.7207 17.0049 40.6166 17.8658 38.1201 17.8641C37.6127 17.8641 37.1052 17.8215 36.5978 17.7365C36.0904 17.6514 35.6041 17.5025 35.139 17.2899L6.59649 46Z" fill="#10B6BC"/>
</svg>
