<svg xmlns="http://www.w3.org/2000/svg" fill="none" viewBox="2.81 4.79 18.38 18.42">
<path d="M9.876 11.065C9.502 11.065 9.238 11.098 9.096 11.131V13.639C9.26 13.683 9.48 13.694 9.756 13.694C10.767 13.694 11.383 13.199 11.383 12.33C11.383 11.505 10.811 11.065 9.876 11.065Z" fill="#363636"/>
<path fill-rule="evenodd" clip-rule="evenodd" d="M6.77 5.082C10.246 4.6967 13.754 4.6967 17.23 5.082C19.129 5.294 20.66 6.789 20.883 8.695C21.2952 12.2197 21.2952 15.7803 20.883 19.305C20.66 21.211 19.129 22.706 17.231 22.919C13.7546 23.3044 10.2463 23.3044 6.77 22.919C4.871 22.706 3.34 21.211 3.117 19.306C2.70472 15.781 2.70472 12.22 3.117 8.695C3.34 6.789 4.871 5.294 6.77 5.082ZM9.095 17.5H7.753V10.185C8.237 10.097 8.908 10.031 9.821 10.031C10.811 10.031 11.537 10.24 12.011 10.636C12.451 10.999 12.736 11.582 12.736 12.275C12.736 12.979 12.516 13.562 12.098 13.958C11.559 14.497 10.712 14.75 9.755 14.75C9.502 14.75 9.271 14.739 9.095 14.706V17.5ZM14.465 17.621C13.815 17.621 13.233 17.456 12.837 17.236L13.101 16.257C13.409 16.444 13.991 16.642 14.476 16.642C15.07 16.642 15.334 16.4 15.334 16.048C15.334 15.685 15.114 15.498 14.454 15.267C13.409 14.904 12.969 14.332 12.98 13.705C12.98 12.759 13.76 12.022 15.004 12.022C15.598 12.022 16.114 12.176 16.423 12.341L16.159 13.298C15.8126 13.1033 15.4233 12.9975 15.026 12.99C14.542 12.99 14.278 13.221 14.278 13.551C14.278 13.892 14.531 14.057 15.213 14.299C16.181 14.651 16.632 15.146 16.643 15.938C16.643 16.906 15.883 17.621 14.465 17.621Z" fill="#363636"/>
</svg>