<svg xmlns="http://www.w3.org/2000/svg" fill="none" viewBox="0.25 0.38 21.5 19.23">
<path d="M11 8.11C12.03 8.11 12.87 8.95 12.87 10C12.87 11 12.03 11.85 11 11.85C9.97 11.85 9.13 11 9.13 10C9.13 8.95 9.97 8.11 11 8.11ZM6.37 18C7 18.38 8.38 17.8 9.97 16.3C9.45 15.71 8.94 15.07 8.46 14.4C7.65415 14.3229 6.85301 14.2027 6.06 14.04C5.55 16.18 5.74 17.65 6.37 18ZM7.08 12.26L6.79 11.75C6.68 12.04 6.57 12.33 6.5 12.61C6.77 12.67 7.07 12.72 7.38 12.77L7.08 12.26ZM13.62 11.5L14.43 10L13.62 8.5C13.32 7.97 13 7.5 12.71 7.03C12.17 7 11.6 7 11 7C10.4 7 9.83 7 9.29 7.03C9 7.5 8.68 7.97 8.38 8.5L7.57 10L8.38 11.5C8.68 12.03 9 12.5 9.29 12.97C9.83 13 10.4 13 11 13C11.6 13 12.17 13 12.71 12.97C13 12.5 13.32 12.03 13.62 11.5ZM11 4.78C10.81 5 10.61 5.23 10.41 5.5H11.59C11.39 5.23 11.19 5 11 4.78ZM11 15.22C11.19 15 11.39 14.77 11.59 14.5H10.41C10.61 14.77 10.81 15 11 15.22ZM15.62 2C15 1.62 13.62 2.2 12.03 3.7C12.55 4.29 13.06 4.93 13.54 5.6C14.36 5.68 15.17 5.8 15.94 5.96C16.45 3.82 16.26 2.35 15.62 2ZM14.92 7.74L15.21 8.25C15.32 7.96 15.43 7.67 15.5 7.39C15.23 7.33 14.93 7.28 14.62 7.23L14.92 7.74ZM16.37 0.689998C17.84 1.53 18 3.74 17.38 6.32C19.92 7.07 21.75 8.31 21.75 10C21.75 11.69 19.92 12.93 17.38 13.68C18 16.26 17.84 18.47 16.37 19.31C14.91 20.15 12.92 19.19 11 17.36C9.08 19.19 7.09 20.15 5.62 19.31C4.16 18.47 4 16.26 4.62 13.68C2.08 12.93 0.25 11.69 0.25 10C0.25 8.31 2.08 7.07 4.62 6.32C4 3.74 4.16 1.53 5.62 0.689998C7.09 -0.150002 9.08 0.809998 11 2.64C12.92 0.809998 14.91 -0.150002 16.37 0.689998ZM16.08 10C16.42 10.75 16.72 11.5 16.97 12.26C19.07 11.63 20.25 10.73 20.25 10C20.25 9.27 19.07 8.37 16.97 7.74C16.72 8.5 16.42 9.25 16.08 10ZM5.92 10C5.58 9.25 5.28 8.5 5.03 7.74C2.93 8.37 1.75 9.27 1.75 10C1.75 10.73 2.93 11.63 5.03 12.26C5.28 11.5 5.58 10.75 5.92 10ZM14.92 12.26L14.62 12.77C14.93 12.72 15.23 12.67 15.5 12.61C15.43 12.33 15.32 12.04 15.21 11.75L14.92 12.26ZM12.03 16.3C13.62 17.8 15 18.38 15.62 18C16.26 17.65 16.45 16.18 15.94 14.04C15.17 14.2 14.36 14.32 13.54 14.4C13.06 15.07 12.55 15.71 12.03 16.3ZM7.08 7.74L7.38 7.23C7.07 7.28 6.77 7.33 6.5 7.39C6.57 7.67 6.68 7.96 6.79 8.25L7.08 7.74ZM9.97 3.7C8.38 2.2 7 1.62 6.37 2C5.74 2.35 5.55 3.82 6.06 5.96C6.85301 5.79729 7.65415 5.67712 8.46 5.6C8.94 4.93 9.45 4.29 9.97 3.7Z" fill="#363636"/>
</svg>