<svg width="64" height="64" viewBox="0 0 64 64" fill="none" xmlns="http://www.w3.org/2000/svg">
<circle cx="32" cy="32" r="31.5" fill="#343434" stroke="#10B6BC"/>
<path d="M32.5 28.4541C34.56 28.4541 36.24 30.1341 36.24 32.2341C36.24 34.2341 34.56 35.9341 32.5 35.9341C30.44 35.9341 28.76 34.2341 28.76 32.2341C28.76 30.1341 30.44 28.4541 32.5 28.4541ZM23.24 48.2341C24.5 48.9941 27.26 47.8341 30.44 44.8341C29.4 43.6541 28.38 42.3741 27.42 41.0341C25.8084 40.8787 24.2062 40.6384 22.62 40.3141C21.6 44.5941 21.98 47.5341 23.24 48.2341ZM24.66 36.7541L24.08 35.7341C23.86 36.3141 23.64 36.8941 23.5 37.4541C24.04 37.5741 24.64 37.6741 25.26 37.7741L24.66 36.7541ZM37.74 35.2341L39.36 32.2341L37.74 29.2341C37.14 28.1741 36.5 27.2341 35.92 26.2941C34.84 26.2341 33.7 26.2341 32.5 26.2341C31.3 26.2341 30.16 26.2341 29.08 26.2941C28.5 27.2341 27.86 28.1741 27.26 29.2341L25.64 32.2341L27.26 35.2341C27.86 36.2941 28.5 37.2341 29.08 38.1741C30.16 38.2341 31.3 38.2341 32.5 38.2341C33.7 38.2341 34.84 38.2341 35.92 38.1741C36.5 37.2341 37.14 36.2941 37.74 35.2341ZM32.5 21.7941C32.12 22.2341 31.72 22.6941 31.32 23.2341H33.68C33.28 22.6941 32.88 22.2341 32.5 21.7941ZM32.5 42.6741C32.88 42.2341 33.28 41.7741 33.68 41.2341H31.32C31.72 41.7741 32.12 42.2341 32.5 42.6741ZM41.74 16.2341C40.5 15.4741 37.74 16.6341 34.56 19.6341C35.6 20.8141 36.62 22.0941 37.58 23.4341C39.22 23.5941 40.84 23.8341 42.38 24.1541C43.4 19.8741 43.02 16.9341 41.74 16.2341ZM40.34 27.7141L40.92 28.7341C41.14 28.1541 41.36 27.5741 41.5 27.0141C40.96 26.8941 40.36 26.7941 39.74 26.6941L40.34 27.7141ZM43.24 13.6141C46.18 15.2941 46.5 19.7141 45.26 24.8741C50.34 26.3741 54 28.8541 54 32.2341C54 35.6141 50.34 38.0941 45.26 39.5941C46.5 44.7541 46.18 49.1741 43.24 50.8541C40.32 52.5341 36.34 50.6141 32.5 46.9541C28.66 50.6141 24.68 52.5341 21.74 50.8541C18.82 49.1741 18.5 44.7541 19.74 39.5941C14.66 38.0941 11 35.6141 11 32.2341C11 28.8541 14.66 26.3741 19.74 24.8741C18.5 19.7141 18.82 15.2941 21.74 13.6141C24.68 11.9341 28.66 13.8541 32.5 17.5141C36.34 13.8541 40.32 11.9341 43.24 13.6141ZM42.66 32.2341C43.34 33.7341 43.94 35.2341 44.44 36.7541C48.64 35.4941 51 33.6941 51 32.2341C51 30.7741 48.64 28.9741 44.44 27.7141C43.94 29.2341 43.34 30.7341 42.66 32.2341ZM22.34 32.2341C21.66 30.7341 21.06 29.2341 20.56 27.7141C16.36 28.9741 14 30.7741 14 32.2341C14 33.6941 16.36 35.4941 20.56 36.7541C21.06 35.2341 21.66 33.7341 22.34 32.2341ZM40.34 36.7541L39.74 37.7741C40.36 37.6741 40.96 37.5741 41.5 37.4541C41.36 36.8941 41.14 36.3141 40.92 35.7341L40.34 36.7541ZM34.56 44.8341C37.74 47.8341 40.5 48.9941 41.74 48.2341C43.02 47.5341 43.4 44.5941 42.38 40.3141C40.84 40.6341 39.22 40.8741 37.58 41.0341C36.62 42.3741 35.6 43.6541 34.56 44.8341ZM24.66 27.7141L25.26 26.6941C24.64 26.7941 24.04 26.8941 23.5 27.0141C23.64 27.5741 23.86 28.1541 24.08 28.7341L24.66 27.7141ZM30.44 19.6341C27.26 16.6341 24.5 15.4741 23.24 16.2341C21.98 16.9341 21.6 19.8741 22.62 24.1541C24.2062 23.8298 25.8084 23.5894 27.42 23.4341C28.38 22.0941 29.4 20.8141 30.44 19.6341Z" fill="#10B6BC"/>
</svg>
