<svg width="18" height="17" viewBox="0 0 18 17" fill="none" xmlns="http://www.w3.org/2000/svg">
<path fill-rule="evenodd" clip-rule="evenodd" d="M0.327893 15.9533C0.0889982 15.6686 -0.0270143 15.3007 0.00537745 14.9305C0.0377698 14.5602 0.215912 14.218 0.500617 13.9791L12.9387 3.54234L4.46261 2.80078C4.27468 2.79101 4.09064 2.74348 3.92148 2.66103C3.75231 2.57858 3.60149 2.4629 3.478 2.3209C3.35451 2.1789 3.26089 2.01348 3.20272 1.83451C3.14455 1.65554 3.12303 1.46669 3.13943 1.27922C3.15583 1.09175 3.20982 0.9095 3.29819 0.743349C3.38655 0.577199 3.50747 0.430549 3.65374 0.312147C3.80002 0.193745 3.96864 0.106017 4.14955 0.0541978C4.33046 0.00237681 4.51995 -0.0124728 4.70673 0.0105323L16.5521 1.04687C16.9221 1.07947 17.2639 1.25756 17.5026 1.54203C17.7413 1.82651 17.8573 2.19409 17.8252 2.56406L16.7889 14.4095C16.7445 14.7698 16.562 15.0989 16.2797 15.3274C15.9975 15.5558 15.6376 15.6658 15.2759 15.6342C14.9142 15.6025 14.5789 15.4317 14.3406 15.1577C14.1024 14.8837 13.9798 14.528 13.9986 14.1654L14.7402 5.6893L2.30213 16.1261C2.01742 16.365 1.64948 16.481 1.27924 16.4486C0.908998 16.4162 0.566789 16.238 0.327893 15.9533Z" fill="#10B6BC"/>
</svg>
