<svg width="64" height="64" viewBox="0 0 64 64" fill="none" xmlns="http://www.w3.org/2000/svg">
<circle cx="32" cy="32" r="31.5" fill="#343434" stroke="#10B6BC"/>
<path d="M40.0242 39.1024C41.4623 38.9529 42.5543 37.7 42.5055 36.1969C42.4812 35.4744 42.1784 34.7893 41.6605 34.285C41.1425 33.7807 40.4496 33.4963 39.7268 33.4912H39.626C38.0872 33.54 36.896 34.8433 36.9448 36.3967C36.9968 37.1491 37.2942 37.7991 37.741 38.2493C36.0527 41.6081 33.4722 44.0619 29.5998 46.1159C26.9705 47.5199 24.2405 48.0204 21.5122 47.6694C19.2778 47.3687 17.5407 46.3661 16.4487 44.7135C14.861 42.2598 14.7132 39.6029 16.0522 36.9476C16.9947 35.0448 18.4848 33.6407 19.4273 32.9404C19.1717 32.0991 18.9564 31.2461 18.7822 30.3843C11.585 35.646 12.3309 42.7602 14.5117 46.1175C16.1497 48.6232 19.4744 50.1768 23.1485 50.1768C24.1515 50.1827 25.1514 50.0648 26.1255 49.8258C32.4793 48.5745 37.2925 44.7655 40.0225 39.104M48.7569 32.8916C44.9853 28.4326 39.4262 25.9773 33.074 25.9773H32.2794C32.0527 25.5265 31.7055 25.1475 31.2763 24.8821C30.8472 24.6168 30.3529 24.4756 29.8484 24.4741H29.7477C28.2104 24.5245 27.0177 25.8278 27.068 27.3813C27.1168 28.8844 28.3583 30.0853 29.8468 30.0853H29.9475C30.4718 30.0583 30.9778 29.8843 31.4078 29.5831C31.8377 29.2819 32.1741 28.8658 32.3785 28.3822H33.2723C37.0439 28.3822 40.6173 29.484 43.8429 31.6388C46.3243 33.293 48.1118 35.4461 49.103 38.0526C49.948 40.1554 49.8993 42.2094 49.0055 43.9644C47.6145 46.6196 45.2827 48.0724 42.2049 48.0724C40.2208 48.0724 38.3342 47.4711 37.3413 47.0194C36.627 47.6568 35.8818 48.2588 35.1085 48.8231C37.2422 49.8257 39.4262 50.3766 41.511 50.3766C46.2755 50.3766 49.7985 47.7214 51.1392 45.0661C52.5773 42.1606 52.4782 37.1508 48.7569 32.8916ZM23.5467 39.9539C23.5954 41.457 24.8369 42.6595 26.3254 42.6595H26.4245C27.9634 42.6108 29.1545 41.3075 29.1058 39.754C29.0815 39.0315 28.7787 38.3464 28.2607 37.8422C27.7428 37.3379 27.0499 37.0534 26.327 37.0484H26.2263C26.1082 37.0391 25.9895 37.0557 25.8785 37.0971C23.844 33.6911 23.0007 29.9845 23.298 25.9756C23.4963 22.9694 24.4892 20.3645 26.2263 18.2098C27.666 16.3573 30.4448 15.4554 32.3314 15.405C37.5915 15.3043 39.8243 21.918 39.9738 24.5733C40.6189 24.7228 41.7109 25.0737 42.4552 25.324C41.8588 17.2087 36.8977 13 32.1315 13C27.666 13 23.5467 16.2565 21.9087 21.0665C19.6255 27.4788 21.114 33.6408 23.8944 38.5011C23.6458 38.8521 23.4963 39.403 23.5467 39.9539Z" fill="#10B6BC"/>
</svg>
