<svg xmlns="http://www.w3.org/2000/svg" fill="none" viewBox="0 0.85 24 16.3">
<path d="M16.405 2.50101C16.29 2.50101 16.212 2.51501 16.131 2.53401V2.54701H16.145C16.199 2.65101 16.291 2.72701 16.359 2.82001C16.413 2.92701 16.459 3.03401 16.513 3.14001L16.527 3.12501C16.621 3.05901 16.667 2.95301 16.667 2.79201C16.627 2.74501 16.621 2.69801 16.587 2.65201C16.547 2.58501 16.461 2.55201 16.407 2.49901L16.405 2.50101ZM5.77 15.695H4.843C4.81693 14.2218 4.72685 12.7504 4.573 11.285H4.565L3.155 15.695H2.45L1.05 11.285H1.04C0.930493 12.7527 0.865464 14.2234 0.845 15.695H0C0.055 13.729 0.192 11.885 0.41 10.165H1.56L2.895 14.229H2.903L4.25 10.165H5.345C5.587 12.18 5.729 14.025 5.773 15.695H5.77ZM9.787 11.615C9.409 13.66 8.911 15.148 8.295 16.075C7.813 16.791 7.285 17.148 6.712 17.148C6.559 17.148 6.372 17.102 6.146 17.01V16.516C6.256 16.533 6.386 16.542 6.532 16.542C6.8 16.542 7.015 16.467 7.179 16.32C7.376 16.14 7.474 15.938 7.474 15.715C7.474 15.56 7.397 15.245 7.244 14.771L6.23 11.615H7.14L7.867 13.975C8.031 14.511 8.1 14.885 8.072 15.098C8.472 14.034 8.75 12.871 8.907 11.615H9.787ZM22.112 15.695H19.482V10.165H20.367V15.015H22.112V15.695ZM18.792 15.83L17.776 15.33C17.866 15.254 17.953 15.172 18.031 15.08C18.464 14.574 18.679 13.822 18.679 12.827C18.679 10.997 17.961 10.081 16.524 10.081C15.82 10.081 15.27 10.313 14.874 10.778C14.444 11.286 14.228 12.034 14.228 13.023C14.228 13.995 14.418 14.709 14.802 15.163C15.152 15.573 15.679 15.778 16.385 15.778C16.649 15.778 16.891 15.745 17.11 15.68L18.435 16.452L18.795 15.83H18.792ZM15.5 14.588C15.275 14.228 15.163 13.648 15.163 12.852C15.163 11.459 15.587 10.762 16.433 10.762C16.876 10.762 17.203 10.929 17.41 11.262C17.634 11.624 17.746 12.198 17.746 12.985C17.746 14.389 17.322 15.093 16.476 15.093C16.031 15.093 15.706 14.926 15.498 14.593L15.5 14.588ZM13.842 14.163C13.842 14.633 13.67 15.019 13.326 15.319C12.982 15.619 12.523 15.769 11.942 15.769C11.399 15.769 10.878 15.597 10.369 15.254L10.606 14.778C11.044 14.998 11.439 15.106 11.796 15.106C12.128 15.106 12.389 15.033 12.579 14.886C12.674 14.8144 12.7506 14.7214 12.8028 14.6145C12.8549 14.5076 12.881 14.3899 12.879 14.271C12.879 13.941 12.649 13.661 12.231 13.426C11.843 13.213 11.068 12.769 11.068 12.769C10.646 12.462 10.436 12.133 10.436 11.592C10.436 11.142 10.593 10.782 10.906 10.507C11.221 10.229 11.626 10.092 12.126 10.092C12.638 10.092 13.106 10.228 13.526 10.502L13.313 10.978C12.9774 10.8306 12.6155 10.7524 12.249 10.748C11.966 10.748 11.747 10.816 11.595 10.954C11.5179 11.0179 11.4557 11.0979 11.4128 11.1885C11.37 11.279 11.3475 11.3778 11.347 11.478C11.347 11.806 11.581 12.088 12.013 12.328C12.406 12.543 13.2 12.998 13.2 12.998C13.633 13.303 13.848 13.628 13.848 14.166L13.842 14.163ZM23.224 8.31101C22.689 8.29701 22.274 8.35101 21.927 8.49901C21.827 8.53901 21.667 8.53901 21.653 8.66601C21.708 8.71901 21.716 8.80601 21.763 8.88001C21.843 9.01401 21.981 9.19301 22.109 9.28701C22.249 9.39701 22.389 9.50301 22.536 9.59701C22.796 9.75701 23.091 9.85201 23.346 10.013C23.491 10.107 23.639 10.226 23.786 10.326C23.859 10.376 23.906 10.466 24 10.498V10.478C23.954 10.418 23.94 10.331 23.895 10.264C23.828 10.197 23.761 10.137 23.695 10.071C23.4987 9.81227 23.2644 9.5847 23 9.39601C22.786 9.25001 22.318 9.04601 22.23 8.80101L22.217 8.78701C22.363 8.77401 22.537 8.72101 22.677 8.68101C22.904 8.62101 23.112 8.63401 23.347 8.57501C23.453 8.54801 23.56 8.51501 23.667 8.48101V8.42101C23.547 8.30101 23.457 8.13801 23.333 8.02601C22.9869 7.72347 22.6178 7.44831 22.229 7.20301C22.019 7.06901 21.753 6.98301 21.532 6.86901C21.452 6.82901 21.318 6.80901 21.272 6.74201C21.152 6.59601 21.082 6.40201 20.997 6.22801C20.8006 5.84709 20.6182 5.45917 20.45 5.06501C20.33 4.80301 20.257 4.54201 20.11 4.30201C19.42 3.16501 18.673 2.47601 17.524 1.80201C17.277 1.66201 16.981 1.60201 16.668 1.52801C16.501 1.52001 16.334 1.50801 16.168 1.50101C16.058 1.45401 15.952 1.32701 15.858 1.26601C15.478 1.02601 14.494 0.506006 14.214 1.19401C14.034 1.62801 14.481 2.05601 14.636 2.27601C14.751 2.42901 14.896 2.60401 14.976 2.77601C15.023 2.89201 15.036 3.01101 15.083 3.13201C15.189 3.42601 15.29 3.75401 15.43 4.02901C15.503 4.16901 15.583 4.31601 15.677 4.44201C15.731 4.51501 15.823 4.54901 15.844 4.66901C15.75 4.80501 15.744 5.00301 15.69 5.16901C15.45 5.92601 15.544 6.86201 15.884 7.41901C15.991 7.58501 16.246 7.95301 16.587 7.81201C16.887 7.69201 16.821 7.31201 16.907 6.97701C16.927 6.89701 16.914 6.84401 16.955 6.79001V6.80501C17.049 6.99301 17.143 7.17201 17.229 7.36001C17.435 7.68801 17.795 8.02801 18.096 8.25501C18.256 8.37501 18.383 8.58301 18.583 8.65701V8.63701H18.568C18.525 8.57901 18.468 8.55101 18.414 8.50401C18.2872 8.37988 18.1702 8.24615 18.064 8.10401C17.7822 7.71902 17.5324 7.31167 17.317 6.88601C17.207 6.67601 17.115 6.45001 17.027 6.24301C16.987 6.16301 16.987 6.04301 16.92 6.00301C16.82 6.14901 16.673 6.27601 16.6 6.45601C16.473 6.74401 16.46 7.09801 16.412 7.46601C16.385 7.47301 16.398 7.46601 16.385 7.48001C16.171 7.42801 16.098 7.20601 16.018 7.02001C15.818 6.54501 15.785 5.78201 15.958 5.23501C16.005 5.09501 16.205 4.65301 16.125 4.51901C16.083 4.39201 15.951 4.31901 15.878 4.21601C15.7841 4.08195 15.7037 3.93892 15.638 3.78901C15.478 3.41501 15.398 3.00101 15.224 2.62701C15.144 2.45401 15.004 2.27301 14.89 2.11401C14.763 1.93401 14.623 1.80701 14.522 1.59401C14.489 1.52101 14.442 1.40001 14.495 1.32001C14.509 1.26601 14.537 1.24501 14.589 1.23001C14.677 1.15801 14.924 1.25201 15.011 1.29201C15.258 1.39201 15.466 1.48601 15.673 1.62601C15.767 1.69201 15.868 1.81901 15.988 1.85201H16.128C16.342 1.89901 16.583 1.86601 16.783 1.92501C17.138 2.03901 17.458 2.20501 17.745 2.38501C18.6293 2.94992 19.3486 3.73856 19.83 4.67101C19.91 4.82501 19.945 4.96601 20.018 5.12601C20.158 5.45601 20.331 5.78901 20.473 6.10801C20.613 6.42301 20.748 6.74401 20.949 7.00501C21.049 7.14501 21.451 7.21801 21.631 7.29101C21.764 7.35101 21.971 7.40601 22.091 7.47901C22.321 7.61901 22.545 7.77901 22.761 7.93301C22.871 8.00901 23.204 8.17601 23.224 8.31101Z" fill="#363636"/>
</svg>