<svg width="64" height="64" viewBox="0 0 64 64" fill="none" xmlns="http://www.w3.org/2000/svg">
<circle cx="32" cy="32" r="31.5" fill="#343434" stroke="#10B6BC"/>
<path d="M31.4445 12V12.0006C31.3147 11.9829 29.2185 12.738 27.8669 13.2873C26.0424 14.0307 24.6262 14.7394 23.7524 15.3531C23.4702 15.5533 23.1265 15.8863 22.9983 16.0752L22.9961 16.0688C22.9879 16.0832 22.9809 16.0983 22.9751 16.1139C22.9684 16.1261 22.9593 16.1401 22.955 16.1505C22.9308 16.2147 22.9189 16.2829 22.92 16.3515L22.9395 16.3698C22.9446 16.4329 22.9593 16.5039 22.9906 16.5816C23.0674 16.7705 23.2917 17.0008 23.5458 17.2367C23.5458 17.2367 26.1725 19.7988 26.4915 20.1647C27.9436 21.8414 28.5756 23.494 28.6347 25.7728C28.6703 27.2368 28.3921 28.5241 27.7014 30.0177C26.4735 32.6977 23.8822 35.6556 19.8856 38.9377L19.9462 38.9173C19.9188 38.9393 19.8828 38.9703 19.8563 38.991C19.378 39.3689 18.6693 40.0773 18.3091 40.5261C17.7717 41.1991 17.3472 41.9133 17.1641 42.4624C16.8393 43.4541 16.9987 44.4574 17.6242 45.3843C18.4273 46.565 20.0273 47.77 21.8929 48.5899C22.8435 49.0095 24.4425 49.5466 25.6472 49.8474C27.6481 50.3553 31.5216 50.9043 33.6523 50.9866C34.0831 51.0046 34.6614 51.0046 34.6852 50.9866C34.7324 50.957 35.0633 50.326 35.4472 49.5412C36.7573 46.8666 37.7016 44.3575 38.2156 42.2143C38.5224 40.9158 38.7643 39.1857 38.9237 37.1373C38.9651 36.5645 38.9828 34.6459 38.9474 33.9966C38.8941 32.9342 38.8003 32.0722 38.6525 31.2282C38.6412 31.1706 38.6341 31.1123 38.6312 31.0536C43.3776 29.6435 48.6152 28.366 52.0944 27.8337L52.6319 27.7511L52.549 27.6207C52.0767 26.8886 51.7522 26.4343 51.3625 25.9501C50.2291 24.5455 48.854 23.4063 47.1713 22.4617C44.8572 21.1687 41.8639 20.1592 38.0739 19.4094C37.3597 19.2677 35.7903 18.9959 34.5151 18.8012L34.3963 18.5883C33.6995 17.3604 32.9323 15.8378 32.4835 14.8107C32.1355 14.0137 31.8046 13.0926 31.6218 12.4314C31.5213 12.0299 31.51 12.0061 31.4445 12ZM31.3501 12.301H31.3561C31.3616 12.3071 31.3851 12.4729 31.4089 12.6676C31.5094 13.4939 31.6925 14.2909 31.982 15.1529C32.2001 15.8019 32.2001 15.7669 31.9463 15.6901C31.3443 15.5249 28.6466 15.0588 26.6923 14.787C26.3794 14.7458 26.1137 14.7044 26.1137 14.6983C26.0902 14.6745 27.5244 13.9253 28.156 13.6301C28.9647 13.2584 31.1846 12.3306 31.3501 12.301ZM25.6591 14.9463L25.8894 15.0231C27.1411 15.4481 30.2873 16.0508 32.0228 16.1925C32.2178 16.2102 32.3829 16.2275 32.3884 16.2275C32.3945 16.2336 32.23 16.322 32.017 16.4222C31.1791 16.8415 30.2574 17.3549 29.62 17.7507C29.475 17.8409 29.3422 17.917 29.2767 17.9481L28.688 17.8521L28.1322 17.3077C27.4144 16.6085 26.6923 15.9138 25.9659 15.2236L25.6591 14.9463ZM25.423 15.1298L26.2554 16.1687C26.71 16.7415 27.1703 17.3022 27.2706 17.4262C27.3593 17.5356 27.4238 17.6157 27.436 17.6395C26.8465 17.5368 26.2155 17.4237 25.7298 17.3189C25.3754 17.2421 24.6969 17.0828 24.1655 16.9C24.1107 16.8787 24.0482 16.8555 23.9888 16.8333V16.7708C23.9949 16.3747 24.4964 15.7842 25.3462 15.1825L25.423 15.1298ZM32.4835 16.5453C32.4884 16.5433 32.4924 16.5437 32.4957 16.5465C32.5191 16.5465 32.5481 16.599 32.6188 16.7583C32.8199 17.201 33.446 18.3936 33.5996 18.6239L33.6191 18.6556C32.5034 18.479 31.3885 18.2972 30.2745 18.1102C30.3105 18.0839 30.3484 18.0603 30.3878 18.0395C31.0079 17.697 31.6334 17.2604 32.1886 16.794C32.3241 16.6818 32.4478 16.5761 32.4719 16.5584C32.4744 16.553 32.4784 16.5485 32.4835 16.5453ZM24.5196 17.5432C24.5254 17.5377 24.6198 17.5736 24.7438 17.6148C25.0266 17.7096 25.3121 17.796 25.6 17.8741C25.859 17.9453 26.1187 18.0142 26.3791 18.0806C26.7331 18.169 27.0287 18.2522 27.0342 18.2522C27.0759 18.2936 27.6722 20.2004 27.873 20.9325C27.9497 21.2098 28.0088 21.4459 28.0031 21.4459C27.997 21.452 27.9318 21.3515 27.855 21.2156C27.1643 19.9999 26.0723 18.7659 24.8087 17.7735C24.6436 17.6556 24.5193 17.5493 24.5193 17.5432H24.5196ZM27.4181 18.3409C27.4181 18.3524 27.4181 18.3469 27.4242 18.3469C27.454 18.3469 27.5838 18.3643 27.7432 18.3997C28.7465 18.6239 30.5472 18.9664 31.698 19.1614C31.893 19.1909 32.0463 19.2266 32.0463 19.2382C32.0463 19.2503 31.9762 19.2915 31.8872 19.3387C31.6922 19.4393 30.907 19.9054 30.6471 20.0821C29.9921 20.5194 29.4019 20.991 28.9768 21.4161C28.8715 21.5214 28.7651 21.6259 28.6578 21.7293C28.6578 21.7293 28.6228 21.6287 28.5929 21.5047C28.3806 20.6839 27.9379 19.4682 27.536 18.612C27.4711 18.4764 27.4181 18.3524 27.4181 18.3409ZM32.5368 19.3204C32.5718 19.3326 32.6313 19.5334 32.7492 19.9761C32.9706 20.8594 33.066 21.7696 33.0325 22.6796C33.0203 22.9276 33.0085 23.158 32.9966 23.1878L32.9792 23.246L32.6724 23.1455C32.0408 22.945 31.0137 22.6443 30.1343 22.3962C29.6322 22.2604 29.2249 22.1366 29.2249 22.1251C29.2249 22.0894 29.957 21.3573 30.2699 21.08C30.8659 20.5544 32.4832 19.3031 32.5368 19.3204ZM32.9436 19.3798C32.9612 19.3622 35.3884 19.7808 36.4923 19.9935C37.3131 20.1528 38.5053 20.4011 38.5763 20.4307C38.6114 20.4429 38.4877 20.5127 38.0919 20.6903C36.5334 21.3926 35.3759 22.0248 34.2248 22.792C33.9237 22.9931 33.6696 23.158 33.6642 23.158C33.6581 23.158 33.6523 22.9867 33.6523 22.7801C33.6523 21.6586 33.4286 20.5252 33.0152 19.5687C32.9737 19.4743 32.9378 19.3856 32.9436 19.3798ZM39.2189 20.6193C39.2366 20.6367 39.1601 21.1156 39.0891 21.399C38.8764 22.2786 38.3042 23.5836 37.6022 24.8115C37.4776 25.0297 37.3652 25.2067 37.3533 25.2125C37.3414 25.2183 37.1833 25.1293 36.9999 25.023C36.3152 24.6214 35.5355 24.2445 34.6855 23.8901C34.4493 23.7896 34.2424 23.707 34.2367 23.6948C34.1952 23.6598 36.0965 22.4023 37.0998 21.8C37.8972 21.3158 39.1958 20.5958 39.2189 20.6193ZM39.6683 20.6903C39.7213 20.6903 40.7957 20.9852 41.3563 21.1507C42.7438 21.5638 44.3374 22.1485 45.3763 22.6208L45.8072 22.8152L45.5067 22.8862C42.9687 23.4706 40.7954 24.1442 38.6994 24.994C38.5282 25.065 38.3746 25.1235 38.363 25.1235C38.3515 25.1235 38.4109 24.9882 38.4877 24.8231C39.1193 23.4828 39.526 22.0836 39.6266 20.8908C39.6324 20.7787 39.6507 20.6903 39.6683 20.6903ZM28.9707 23.1461C28.9884 23.1284 29.8089 23.3234 30.252 23.4474C30.9253 23.6363 32.354 24.1147 32.354 24.1494C32.354 24.1555 32.194 24.2914 32.0051 24.4565C31.2318 25.1 30.4878 25.7792 29.5963 26.6411C29.3309 26.895 29.1069 27.1012 29.0951 27.1012C29.0829 27.1012 29.0771 27.0662 29.0829 27.019C29.2185 26.0272 29.1895 24.7521 29.0006 23.4593C28.9823 23.2939 28.965 23.1519 28.9707 23.1461ZM46.2148 23.1641C46.2264 23.1759 45.837 23.7893 45.5887 24.1375C45.2347 24.6454 44.7152 25.3188 43.5406 26.7944C43.023 27.4441 42.5075 28.0954 41.994 28.7484C41.7579 29.0436 41.5629 29.2916 41.5565 29.2916C41.551 29.2916 41.4742 29.185 41.3916 29.0555C40.7305 28.0634 39.9392 27.196 39.0004 26.4169C38.8576 26.2957 38.7122 26.1775 38.5644 26.0622C38.4992 26.015 38.4456 25.9678 38.4456 25.9617C38.4456 25.9443 39.4493 25.5132 40.211 25.2064C41.5455 24.6631 43.363 24.0141 44.7271 23.5946C45.4412 23.3706 46.203 23.1522 46.2148 23.1641ZM46.6694 23.282C46.6929 23.2759 46.8349 23.3472 47.0058 23.4474C48.4406 24.2679 49.8455 25.3249 50.9555 26.4108C51.2684 26.7179 52.0414 27.5202 52.0295 27.526C52.0295 27.526 51.758 27.5503 51.4393 27.5738C48.954 27.7627 45.7721 28.2877 42.7146 29.0256C42.5074 29.0729 42.3246 29.1143 42.3127 29.1143C42.3008 29.1143 42.5309 28.884 42.8203 28.6067C44.6149 26.877 45.4354 25.785 46.4034 23.8365C46.5393 23.5477 46.6576 23.2996 46.6694 23.282ZM33.5228 24.6281C33.605 24.6457 34.3722 25.0056 34.9508 25.295C35.4822 25.5604 36.2796 25.9855 36.3207 26.0211C36.3268 26.0269 36.0435 26.1744 35.6949 26.3459C34.6541 26.8634 33.6358 27.4247 32.6425 28.0284C32.3592 28.1996 32.1233 28.3413 32.1176 28.3413C32.0938 28.3413 32.0999 28.3175 32.2592 28.0284C32.7906 27.0604 33.216 25.9032 33.4579 24.7755C33.4813 24.6872 33.5051 24.6281 33.5228 24.6281ZM32.755 24.7695C32.7726 24.7871 32.5722 25.5135 32.4478 25.909C32.2056 26.6585 31.7986 27.597 31.4028 28.3057C31.3083 28.4708 31.1666 28.7133 31.0898 28.8489L30.9424 29.0847L30.6121 28.7663C30.2282 28.3946 29.9153 28.1637 29.514 27.9568C29.3543 27.8745 29.2306 27.8038 29.2306 27.7923C29.2306 27.7447 30.2404 26.8297 31.0137 26.1686C31.5682 25.6902 32.7373 24.7518 32.755 24.7695ZM37.4484 26.7L37.7378 26.8889C38.399 27.3197 39.1778 27.8928 39.7741 28.394C40.1104 28.6713 40.7597 29.2563 40.8898 29.3977L40.9608 29.4744L40.4824 29.6106C37.7787 30.3602 35.6888 31.0271 33.2507 31.9244C32.9789 32.025 32.7489 32.1072 32.7312 32.1072C32.6959 32.1072 32.6663 32.1365 33.2745 31.5756C34.8329 30.1414 36.2147 28.5598 37.2421 27.019L37.4484 26.7ZM36.2144 27.0071C36.2266 27.0193 35.4179 28.1579 34.9338 28.8014C34.3549 29.5689 33.3275 30.8559 32.6188 31.6941C32.3238 32.0426 32.0703 32.3315 32.0581 32.3373C32.0405 32.3434 32.0344 32.255 32.0344 32.1191C32.0344 31.4049 31.8519 30.6432 31.5332 29.9939C31.3973 29.7225 31.3738 29.6576 31.4037 29.628C31.5158 29.5275 33.233 28.5479 34.3189 27.9635C35.0514 27.5735 36.197 26.9955 36.2144 27.0071ZM28.7526 28.837C28.77 28.837 28.9055 28.908 29.0594 28.9906C29.4186 29.1864 29.7586 29.4157 30.0746 29.6755C30.0868 29.6871 29.9333 29.8114 29.7325 29.9589C29.1718 30.3602 28.3218 31.004 27.8257 31.3995C27.3062 31.8126 27.2886 31.8242 27.3474 31.7358C27.7374 31.1396 27.9324 30.8029 28.1389 30.3717C28.329 29.9708 28.4945 29.5587 28.6347 29.1378C28.6819 28.9671 28.7407 28.837 28.7526 28.837ZM30.7422 30.3949C30.7718 30.3894 30.8071 30.4427 30.9661 30.6789C31.3025 31.1807 31.5624 31.854 31.6273 32.397L31.6392 32.5146L30.8306 32.8278C29.3842 33.3885 28.05 33.9436 27.1469 34.3574C26.8168 34.5119 26.4881 34.6691 26.1606 34.829C25.8712 34.9765 25.6353 35.0889 25.6353 35.0831C25.6353 35.0773 25.8181 34.9414 26.0424 34.776C27.8078 33.4951 29.337 32.0899 30.4823 30.685C30.6063 30.5375 30.7184 30.4016 30.73 30.3955L30.7422 30.3949ZM29.8272 30.6195V30.6201C29.851 30.6435 29.1776 31.4049 28.7172 31.8714C27.5777 33.0341 26.4501 33.9436 25.0509 34.829C24.8736 34.9411 24.7146 35.0414 24.6969 35.053C24.6558 35.0767 24.7085 35.0176 25.3227 34.3507C25.6827 33.9644 26.0236 33.5607 26.344 33.141C26.5683 32.8516 26.6094 32.8102 26.9342 32.5804C27.8026 31.954 29.8038 30.596 29.8272 30.6195ZM37.7412 31.3202C37.8247 31.6423 37.9788 33.1867 38.0209 34.209C38.0331 34.4512 38.0267 34.6106 38.0145 34.6106C37.9676 34.6106 37.0172 34.0499 36.3387 33.6246C35.7507 33.2544 34.6388 32.5174 34.4557 32.3714C35.5453 32.0038 36.6406 31.6533 37.7412 31.3202ZM33.8208 32.5975C33.8982 32.631 34.0142 32.695 34.2485 32.8397C35.4646 33.6014 37.1181 34.5222 37.8265 34.8293C38.0446 34.9238 38.0681 34.8881 37.5663 35.2309C36.492 35.9628 35.1519 36.6827 33.5109 37.4088C33.2214 37.5386 32.9792 37.6391 32.9734 37.6391C32.9612 37.6391 32.9969 37.4911 33.0441 37.314C33.4393 35.8439 33.6645 34.3571 33.6763 33.1645C33.6794 32.8668 33.6806 32.7197 33.6882 32.6444L33.8208 32.5975ZM32.9174 32.9189C32.946 33.064 32.9238 34.2498 32.8787 34.5929C32.773 35.463 32.5915 36.3222 32.3363 37.1608C32.2711 37.3793 32.2114 37.5627 32.1998 37.5742C32.1761 37.6038 31.3674 36.8125 31.1017 36.5054C30.6417 35.974 30.2815 35.4433 30.0158 34.9238C29.8927 34.6831 29.7151 34.2519 29.6944 34.1566C30.5624 33.8042 31.4351 33.4634 32.3123 33.1343C32.5002 33.0637 32.7214 32.9902 32.9174 32.9189ZM29.0774 34.4119C29.0917 34.4329 29.1271 34.5115 29.16 34.6106C29.3489 35.124 29.7733 35.8796 30.1395 36.3637C30.5411 36.8951 31.0667 37.4621 31.5036 37.8338C31.6453 37.9518 31.7748 38.0642 31.7928 38.0819C31.8281 38.1175 31.84 38.1114 30.8775 38.4776C29.7623 38.9027 28.546 39.3277 27.1527 39.7762C26.8198 39.8836 26.4871 39.9918 26.1548 40.101C26.1015 40.1187 26.1201 40.0888 26.2733 39.8469C26.9641 38.7671 28.0143 36.6477 28.6048 35.148C28.7054 34.8881 28.8056 34.6282 28.8233 34.5691C28.8315 34.5402 28.8434 34.5234 28.8547 34.5048L29.0774 34.4119ZM27.8556 34.9299C27.8154 35.0487 27.5591 35.5853 27.2944 36.1038C26.7215 37.2199 26.096 38.318 25.2578 39.6522C25.1158 39.8823 24.9806 40.0949 24.9623 40.1184C24.933 40.1598 24.9211 40.1482 24.8264 39.9654C24.6256 39.5693 24.4608 39.062 24.3718 38.5956C24.2834 38.1352 24.3011 37.3323 24.4017 36.8363C24.4474 36.6178 24.4675 36.5356 24.5113 36.4829C25.612 35.9352 26.7271 35.4172 27.8556 34.9296V34.9299ZM38.0562 35.2955V35.5432C38.0562 36.8598 37.9145 38.6662 37.708 39.9825C37.6726 40.2128 37.6431 40.4021 37.6373 40.4081C37.6373 40.4081 37.4657 40.3606 37.2653 40.3015C36.3246 40.0028 35.4152 39.6134 34.5499 39.1388C33.9771 38.8259 33.1453 38.3119 33.1687 38.2884C33.1745 38.2823 33.4222 38.1529 33.7111 37.999C34.8686 37.3972 35.9783 36.7476 36.9408 36.1038C37.3009 35.8619 37.8436 35.4728 37.9615 35.3665L38.0562 35.2955ZM23.4166 37.0435C23.4391 37.0447 23.4324 37.0931 23.3977 37.3028C23.3683 37.5121 23.3466 37.7225 23.3328 37.9335C23.2856 38.7957 23.4273 39.4341 23.8523 40.3076C23.9705 40.5495 24.065 40.7503 24.0589 40.7561C24.0177 40.7917 20.1095 41.9368 18.8816 42.2731C18.5157 42.3737 18.197 42.462 18.1732 42.4678C18.1318 42.48 18.126 42.4742 18.1437 42.3737C18.2796 41.5059 18.941 40.3725 19.8621 39.4161C20.4758 38.7784 20.9657 38.4064 21.8039 37.9283C22.0845 37.7686 22.4334 37.5739 22.7353 37.4073C22.9602 37.285 23.1873 37.1637 23.4166 37.0435ZM32.6246 38.69H32.6252C32.6313 38.6839 32.7723 38.7607 32.9436 38.8606C34.2071 39.5931 35.9664 40.2723 37.4657 40.6205L37.6013 40.6498L37.4127 40.7564C36.6278 41.193 34.0474 42.2677 31.4089 43.2533C31.0249 43.395 30.6477 43.5367 30.5771 43.5662C30.5061 43.5958 30.4406 43.6135 30.4406 43.6074C30.4406 43.6013 30.5472 43.3947 30.6828 43.1409C31.4207 41.7594 32.1645 40.0773 32.5426 38.9085C32.5898 38.7964 32.6185 38.6961 32.6246 38.69ZM31.6861 38.9965H31.6867C31.6928 39.0026 31.6453 39.1269 31.5862 39.2686C31.0725 40.5142 30.3994 41.8722 29.5375 43.395C29.3193 43.785 29.1362 44.0976 29.1304 44.0976C29.1246 44.0976 28.9473 43.991 28.7343 43.8615C27.4833 43.0937 26.373 42.1491 25.6472 41.2342L25.5406 41.1044L26.078 40.9569C28.0024 40.4316 29.638 39.8649 31.2614 39.1684C31.4917 39.0739 31.6803 38.9965 31.6861 38.9965ZM37.5188 41.0337C37.5248 41.1696 37.2241 42.3856 36.9761 43.2652C36.7695 44.0032 36.5922 44.5815 36.2671 45.6028C36.1257 46.0519 36.002 46.4233 35.9959 46.4233C35.9898 46.4233 35.9548 46.4178 35.9191 46.4062C34.166 46.0872 32.5956 45.6442 31.1197 45.054C30.7066 44.8886 30.1164 44.6229 30.0807 44.5933C30.0691 44.5815 30.4232 44.4163 30.872 44.2216C33.5581 43.0467 36.3442 41.7125 37.3009 41.14C37.413 41.069 37.5011 41.0337 37.5188 41.0337ZM24.0534 41.4938C24.0656 41.5059 23.3151 42.5861 22.2649 44.0562C21.8983 44.5699 21.4736 45.1716 21.3143 45.3959C21.1298 45.6559 20.9506 45.9196 20.7768 46.1869L20.5288 46.5711L20.2634 46.3462C19.9505 46.0863 19.4075 45.5318 19.1653 45.225C18.6577 44.5933 18.3149 43.9258 18.1793 43.3176C18.1141 43.0343 18.1141 42.8929 18.1732 42.8758C19.2194 42.6258 20.2666 42.3796 21.3146 42.1373C22.0196 41.9749 22.7239 41.8097 23.4276 41.6415C23.77 41.559 24.0476 41.4938 24.0534 41.4938ZM24.8087 41.7832L24.9979 41.9956C25.848 42.9462 26.7154 43.6485 27.7663 44.2624C27.9552 44.3691 28.0972 44.4632 28.0853 44.4693C28.0442 44.4986 24.437 45.7795 22.7664 46.3584C22.195 46.5607 21.6222 46.7594 21.0483 46.9544C21.0425 46.9544 20.9892 46.9187 20.9303 46.8776L20.8237 46.8008L20.9952 46.5528C21.5498 45.7499 22.2466 44.8706 23.7636 43.0403L24.8087 41.7832ZM29.5201 45.1537C29.5259 45.1476 29.7852 45.242 30.1045 45.3608C30.872 45.65 31.4795 45.8331 32.2943 46.0397C33.2979 46.2935 34.7504 46.5412 35.6068 46.6125C35.7366 46.6238 35.807 46.6357 35.7836 46.6533C35.7421 46.6768 34.8741 46.9665 34.2367 47.167C33.2211 47.486 30.1222 48.401 27.5954 49.1271C27.2989 49.2139 27.0018 49.2986 26.7042 49.3812C26.6451 49.3928 26.4501 49.3391 26.4501 49.3157C26.4501 49.3041 26.5917 49.1213 26.763 48.9205C27.6131 47.905 28.4573 46.7712 29.16 45.6969C29.355 45.4017 29.5201 45.1594 29.5201 45.1537ZM28.4805 45.1835H28.4811C28.4869 45.1896 28.0677 45.8621 27.3355 47.0193C27.0229 47.5092 26.6743 48.0649 26.5506 48.2593C26.4324 48.4482 26.2548 48.7438 26.1545 48.9086L25.9839 49.2094L25.8955 49.1862C25.6826 49.1268 24.189 48.6015 23.7932 48.4421C23.3243 48.2556 22.8653 48.0449 22.4181 47.8108C21.9459 47.5567 21.3557 47.1789 21.4029 47.167C21.4145 47.1609 22.2231 46.9428 23.1972 46.6771C25.7825 45.9745 27.2173 45.5674 28.156 45.2722C28.3272 45.2189 28.4747 45.1774 28.4805 45.1835ZM35.8305 46.9068H35.8369C35.8603 46.9662 34.9036 49.6225 34.5551 50.4607C34.4789 50.6496 34.449 50.6971 34.4076 50.691C34.307 50.685 32.9204 50.4909 32.0761 50.3669C30.6063 50.1426 28.138 49.7118 27.5186 49.5698L27.3772 49.5402L28.2566 49.3395C30.1456 48.9144 31.0548 48.6844 31.9759 48.401C33.1654 48.0372 34.3274 47.5892 35.4533 47.0604C35.6361 46.9781 35.789 46.9132 35.8305 46.9074V46.9068Z" fill="#10B6BC"/>
</svg>
