<svg width="43" height="48" viewBox="0 0 43 48" fill="none" xmlns="http://www.w3.org/2000/svg">
<path d="M39.739 21.3153L42.4513 22.962C42.6186 23.0634 42.7571 23.2069 42.8533 23.3786C42.9495 23.5504 43 23.7444 43 23.9418C43 24.1392 42.9495 24.3332 42.8533 24.5049C42.7571 24.6766 42.6186 24.8202 42.4513 24.9216L21.5 37.6429L0.548716 24.9216C0.381391 24.8202 0.242888 24.6766 0.146719 24.5049C0.05055 24.3332 0 24.1392 0 23.9418C0 23.7444 0.05055 23.5504 0.146719 23.3786C0.242888 23.2069 0.381391 23.0634 0.548716 22.962L3.26099 21.3153L21.5 32.3922L39.739 21.3153ZM39.739 32.0496L42.4513 33.6963C42.6186 33.7977 42.7571 33.9413 42.8533 34.113C42.9495 34.2847 43 34.4787 43 34.6761C43 34.8735 42.9495 35.0675 42.8533 35.2393C42.7571 35.411 42.6186 35.5545 42.4513 35.6559L22.6621 47.6738C22.3111 47.8873 21.9094 48 21.5 48C21.0906 48 20.6889 47.8873 20.3379 47.6738L0.548716 35.6559C0.381391 35.5545 0.242888 35.411 0.146719 35.2393C0.05055 35.0675 0 34.8735 0 34.6761C0 34.4787 0.05055 34.2847 0.146719 34.113C0.242888 33.9413 0.381391 33.7977 0.548716 33.6963L3.26099 32.0496L21.5 43.1266L39.739 32.0496ZM22.6598 0.32388L42.4513 12.3418C42.6186 12.4432 42.7571 12.5867 42.8533 12.7585C42.9495 12.9302 43 13.1242 43 13.3216C43 13.519 42.9495 13.713 42.8533 13.8847C42.7571 14.0564 42.6186 14.2 42.4513 14.3014L21.5 27.0228L0.548716 14.3037C0.381391 14.2023 0.242888 14.0587 0.146719 13.887C0.05055 13.7153 0 13.5213 0 13.3239C0 13.1265 0.05055 12.9325 0.146719 12.7607C0.242888 12.589 0.381391 12.4455 0.548716 12.3441L20.3379 0.326164C20.6889 0.112748 21.0906 0 21.5 0C21.9094 0 22.3111 0.112748 22.6621 0.326164" fill="#10B6BC"/>
</svg>
