<svg xmlns="http://www.w3.org/2000/svg" fill="none" viewBox="2.5 3.74 14.52 12.51">
<path d="M3.66667 16.1875C3.38889 16.2986 3.125 16.2741 2.875 16.1141C2.625 15.9547 2.5 15.7222 2.5 15.4166V12.3125C2.5 12.118 2.55556 11.9444 2.66667 11.7916C2.77778 11.6389 2.93056 11.5416 3.125 11.5L9.16667 9.99996L3.125 8.49996C2.93056 8.4583 2.77778 8.36108 2.66667 8.2083C2.55556 8.05552 2.5 7.88191 2.5 7.68746V4.5833C2.5 4.27774 2.625 4.04497 2.875 3.88497C3.125 3.72552 3.38889 3.70135 3.66667 3.81246L16.5 9.22913C16.8472 9.38191 17.0208 9.63885 17.0208 9.99996C17.0208 10.3611 16.8472 10.618 16.5 10.7708L3.66667 16.1875Z" fill="#39B5CB"/>
</svg>