<svg width="64" height="64" viewBox="0 0 64 64" xmlns="http://www.w3.org/2000/svg">
<circle cx="32" cy="32" r="31.5" stroke="#10B6BC"/>
<path d="M32 20C26.66 20 23.34 22.66 22 28C24 25.34 26.34 24.34 29 25C30.52 25.38 31.62 26.48 32.82 27.7C34.78 29.7 37 32 42 32C47.34 32 50.66 29.34 52 24C50 26.66 47.66 27.66 45 27C43.48 26.62 42.4 25.52 41.18 24.3C39.22 22.3 37 20 32 20ZM22 32C16.66 32 13.34 34.66 12 40C14 37.34 16.34 36.34 19 37C20.52 37.38 21.6 38.48 22.82 39.7C24.78 41.7 27 44 32 44C37.34 44 40.66 41.34 42 36C40 38.66 37.66 39.66 35 39C33.48 38.62 32.4 37.52 31.18 36.3C29.22 34.3 27 32 22 32Z" fill="#10B6BC"/>
</svg>
