<svg width="64" height="64" viewBox="0 0 64 64" xmlns="http://www.w3.org/2000/svg">
<circle cx="32" cy="32" r="31.5" stroke="#10B6BC"/>
<path d="M49.142 14H14.855C14.7426 14 14.6313 14.0222 14.5274 14.0652C14.4236 14.1083 14.3293 14.1714 14.2499 14.2509C14.1705 14.3305 14.1075 14.4249 14.0647 14.5288C14.0218 14.6327 13.9998 14.7441 14 14.8565V49.1435C13.9998 49.2561 14.0218 49.3675 14.0648 49.4715C14.1078 49.5755 14.1708 49.67 14.2504 49.7496C14.33 49.8292 14.4245 49.8922 14.5285 49.9352C14.6325 49.9782 14.7439 50.0002 14.8565 50H49.1435C49.2561 50.0002 49.3675 49.9782 49.4715 49.9352C49.5755 49.8922 49.67 49.8292 49.7496 49.7496C49.8292 49.67 49.8922 49.5755 49.9352 49.4715C49.9782 49.3675 50.0002 49.2561 50 49.1435V14.855C50 14.7424 49.9778 14.631 49.9346 14.5271C49.8915 14.4232 49.8282 14.3288 49.7485 14.2494C49.6688 14.1699 49.5742 14.107 49.4701 14.0642C49.3661 14.0214 49.2546 13.9996 49.142 14ZM35.4281 33.2382H31.1428V46.5696H27.7139V33.2382H23.4286V30.2848H35.4281V33.2382ZM36.3881 45.8077V42.2453C36.3881 42.2453 38.335 43.7123 40.6704 43.7123C43.0058 43.7123 42.9158 42.1853 42.9158 41.9753C42.9158 39.7599 36.2981 39.7599 36.2981 34.8491C36.2981 28.1714 45.9412 30.8068 45.9412 30.8068L45.8212 33.9807C45.8212 33.9807 44.2042 32.9022 42.3773 32.9022C40.5504 32.9022 39.8919 33.7722 39.8919 34.6991C39.8919 37.0945 46.5696 36.856 46.5696 41.6768C46.5696 49.1015 36.3881 45.8092 36.3881 45.8092" fill="#10B6BC"/>
</svg>
